<svg width="152" height="46" fill="none" xmlns="http://www.w3.org/2000/svg"><path d="M61.5 23.605h3.374l-4.09-11.975h-3.786l-4.081 11.975h3.07l.783-2.63h3.972l.759 2.63Zm-2.807-9.278h.16l1.307 4.457h-2.8l1.333-4.457ZM66.736 23.605h2.977V10.908h-2.977v12.697ZM72.875 12.253v2.24h-1.442v2.183h1.442v4.398c0 1.81.97 2.548 3.44 2.548.565 0 1.113-.05 1.425-.116v-2.091c-.22.024-.405.041-.75.041-.776 0-1.138-.34-1.138-1.037v-3.743h1.888v-2.183h-1.888v-2.24h-2.977ZM83.895 16.236c.996 0 1.62.64 1.67 1.718h-3.406c.075-1.046.758-1.718 1.736-1.718Zm1.78 4.648c-.203.539-.802.854-1.67.854-1.138 0-1.838-.747-1.864-1.95v-.15h6.316v-.813c0-2.946-1.686-4.672-4.579-4.672-2.909 0-4.67 1.85-4.67 4.896 0 3.03 1.72 4.772 4.713 4.772 2.428 0 4.148-1.137 4.477-2.938h-2.724ZM90.312 23.605h2.977v-4.887c0-1.287.877-2.017 2.192-2.017.456 0 1.054.075 1.282.166v-2.498c-.22-.091-.683-.141-1.08-.141-1.172 0-2.082.73-2.31 1.66h-.16v-1.52h-2.9v9.237ZM98.373 23.605h2.976v-5.277c0-1.063.582-1.776 1.551-1.776 1.013 0 1.476.622 1.476 1.742v5.311h2.985V17.64c0-2.216-1.088-3.486-3.179-3.486-1.357 0-2.336.672-2.749 1.718h-.16v-1.502h-2.9v9.236ZM113.248 21.697c-.751 0-1.249-.365-1.249-.955 0-.556.464-.896 1.35-.962l1.576-.1v.606c0 .797-.733 1.41-1.677 1.41Zm-1.088 2.05c1.189 0 2.217-.498 2.639-1.287h.16v1.145h2.901v-6.298c0-1.992-1.476-3.154-4.064-3.154-2.538 0-4.199 1.112-4.335 2.905h2.682c.194-.49.7-.747 1.484-.747.826 0 1.298.373 1.298.996v.722l-2.048.116c-2.421.14-3.753 1.12-3.753 2.805 0 1.693 1.231 2.797 3.036 2.797ZM120.87 12.253v2.24h-1.442v2.183h1.442v4.398c0 1.81.97 2.548 3.44 2.548.565 0 1.113-.05 1.425-.116v-2.091a5.825 5.825 0 0 1-.75.041c-.776 0-1.138-.34-1.138-1.037v-3.743h1.888v-2.183h-1.888v-2.24h-2.977ZM127.7 23.605h2.985V14.37H127.7v9.236Zm1.493-10.473c.868 0 1.585-.672 1.585-1.527 0-.854-.717-1.535-1.585-1.535-.869 0-1.586.68-1.586 1.535 0 .855.717 1.527 1.586 1.527ZM141.949 14.369h-3.136l-1.594 6.606h-.16l-1.627-6.606h-3.213l3.162 9.236h3.44l3.128-9.236ZM147.288 16.236c.995 0 1.619.64 1.67 1.718h-3.407c.076-1.046.759-1.718 1.737-1.718Zm1.78 4.648c-.203.539-.802.854-1.67.854-1.138 0-1.838-.747-1.864-1.95v-.15h6.316v-.813c0-2.946-1.686-4.672-4.579-4.672-2.909 0-4.671 1.85-4.671 4.896 0 3.03 1.72 4.772 4.714 4.772 2.428 0 4.148-1.137 4.477-2.938h-2.723ZM91.07 35.081c1.357 0 2.357-.788 2.525-1.97h-.94c-.169.676-.78 1.103-1.585 1.103-1.096 0-1.78-.875-1.78-2.27 0-1.398.684-2.273 1.776-2.273.8 0 1.412.473 1.589 1.207h.94c-.152-1.22-1.189-2.075-2.53-2.075-1.69 0-2.74 1.2-2.74 3.141 0 1.938 1.054 3.137 2.745 3.137ZM99.417 28.803c-1.745 0-2.842 1.204-2.842 3.137 0 1.93 1.071 3.141 2.842 3.141 1.758 0 2.837-1.215 2.837-3.14 0-1.93-1.087-3.138-2.837-3.138Zm0 .867c1.151 0 1.872.88 1.872 2.27 0 1.382-.717 2.274-1.872 2.274-1.172 0-1.876-.892-1.876-2.274 0-1.39.725-2.27 1.876-2.27ZM111.678 34.936v-5.988h-1.105l-1.939 4.581h-.072l-1.935-4.58h-1.105v5.987h.877v-4.324h.059l1.784 4.183h.716l1.784-4.183h.059v4.324h.877ZM121.346 34.936v-5.988h-1.105l-1.939 4.581h-.072l-1.935-4.58h-1.105v5.987h.877v-4.324h.059l1.784 4.183h.716l1.784-4.183h.059v4.324h.877ZM128.721 34.09h-2.918v-1.797h2.761v-.805h-2.761v-1.693h2.918v-.847h-3.863v5.988h3.863v-.846ZM133.016 29.766h1.332c.729 0 1.176.394 1.176 1.046 0 .668-.421 1.05-1.151 1.05h-1.357v-2.096Zm0 2.888h1.332l1.239 2.282h1.092l-1.366-2.436c.742-.248 1.181-.904 1.181-1.71 0-1.124-.789-1.841-2.015-1.841h-2.408v5.987h.945v-2.282ZM142.321 35.081c1.357 0 2.356-.788 2.525-1.97h-.94c-.169.676-.78 1.103-1.585 1.103-1.096 0-1.78-.875-1.78-2.27 0-1.398.684-2.273 1.776-2.273.8 0 1.412.473 1.589 1.207h.94c-.152-1.22-1.189-2.075-2.529-2.075-1.691 0-2.741 1.2-2.741 3.141 0 1.938 1.054 3.137 2.745 3.137ZM151.937 34.09h-2.917v-1.797h2.761v-.805h-2.761v-1.693h2.917v-.847h-3.861v5.988h3.861v-.846ZM12.298 20.189 0 31.174l4.986 1.595 7.312-12.58ZM28.744 40.365l14.321 4.58-.97-4.58H28.744ZM37.097 16.77 33.76 1.016 29.929 4.44l7.168 12.33Z" fill="#333"/><path fill-rule="evenodd" clip-rule="evenodd" d="M25.69 0 3.05 38.949h45.281L25.691 0Zm0 14.26L15.457 31.868h20.469L25.69 14.261Z" fill="#019AD2"/></svg>