<svg width="584" height="713" fill="none" xmlns="http://www.w3.org/2000/svg"><g opacity=".05"><path d="M93.32 647.611c32.209 30.548 73.595 52.463 117.235 60.925 37.3 7.088 75.643 4.776 111.585-6.354 10.363-3.397 20.367-8.199 30.398-14.655C397.79 659.494 464.595 576.817 523.5 570c72.798-8.122 174.081 52.565 267.939-22.025 27.199-21.323 45.792-53.474 54.875-87.686 7.321-27.623 6.15-57.418.239-85.253-9.446-45.198-29.642-86.751-56.507-125.103-15.171-21.875-32.904-42.647-50.913-62.151C701.985 147.866 580.442 185.26 535 154.5 466.011 108.347 465.628 1.046 382.792.353c-18.579-.043-37.434 1.181-55.57 5.217-22.602 4.727-43.853 12.403-64.881 22.119-28.718 13.028-55.588 29.775-80.583 48.59C94.402 142.318 29.195 239.382 7.574 348.216-15.943 471.908 25.012 583.018 93.32 647.611Z" fill="url('#paint0_linear_25_550')"/><path d="M93.32 647.611c32.209 30.548 73.595 52.463 117.235 60.925 37.3 7.088 75.643 4.776 111.585-6.354 10.363-3.397 20.367-8.199 30.398-14.655C397.79 659.494 464.595 576.817 523.5 570c72.798-8.122 174.081 52.565 267.939-22.025 27.199-21.323 45.792-53.474 54.875-87.686 7.321-27.623 6.15-57.418.239-85.253-9.446-45.198-29.642-86.751-56.507-125.103-15.171-21.875-32.904-42.647-50.913-62.151C701.985 147.866 580.442 185.26 535 154.5 466.011 108.347 465.628 1.046 382.792.353c-18.579-.043-37.434 1.181-55.57 5.217-22.602 4.727-43.853 12.403-64.881 22.119-28.718 13.028-55.588 29.775-80.583 48.59C94.402 142.318 29.195 239.382 7.574 348.216-15.943 471.908 25.012 583.018 93.32 647.611Z" fill="url('#paint1_linear_25_550')"/></g><defs><linearGradient id="paint0_linear_25_550" x1="42.718" y1="296.616" x2="834.936" y2="467.73" gradientUnits="userSpaceOnUse"><stop offset=".007" stop-color="#FF9C37"/><stop offset=".997" stop-color="#FF7300"/></linearGradient><linearGradient id="paint1_linear_25_550" x1="513.986" y1="-230.304" x2="332.825" y2="1011.62" gradientUnits="userSpaceOnUse"><stop stop-color="#FFDF00"/><stop offset="1" stop-color="#FFB800"/></linearGradient></defs></svg>