<svg width="750" height="673" fill="none" xmlns="http://www.w3.org/2000/svg"><circle cx="375" cy="337" r="188" fill="url('#paint0_radial_22_323')"/><path d="M374.966 455.641c65.386 0 118.393-53.006 118.393-118.393s-53.007-118.393-118.393-118.393c-65.387 0-118.394 53.006-118.394 118.393s53.007 118.393 118.394 118.393Z" fill="url('#paint1_linear_22_323')"/><path d="M374 120.635c119.19 0 216 96.976 216 216 0 119.023-96.976 216-216 216" stroke="url('#paint2_linear_22_323')" stroke-width="3.316" stroke-miterlimit="10"/><path d="M374 120.635c-119.19 0-216 96.976-216 216 0 119.023 96.976 216 216 216" stroke="url('#paint3_linear_22_323')" stroke-width="3.316" stroke-miterlimit="10"/><path d="M636.127 189.505c0-22.054 17.908-40.128 40.128-40.128 22.054 0 40.128 17.909 40.128 40.128 0 22.054-17.909 40.128-40.128 40.128-22.22 0-40.128-18.074-40.128-40.128ZM669.291 337.248c0-22.054 17.908-40.128 40.127-40.128 22.054 0 40.128 17.908 40.128 40.128 0 22.053-17.908 40.128-40.128 40.128-22.219 0-40.127-18.075-40.127-40.128ZM636.127 484.991c0-22.054 17.908-40.128 40.128-40.128 22.054 0 40.128 17.908 40.128 40.128 0 22.053-17.909 40.127-40.128 40.127-22.22-.165-40.128-18.074-40.128-40.127ZM503.474 632.734c0-22.054 17.908-40.128 40.127-40.128 22.054 0 40.128 17.908 40.128 40.128 0 22.219-17.908 40.127-40.128 40.127-22.219-.165-40.127-18.074-40.127-40.127ZM503.474 41.762c0-22.053 17.908-40.127 40.127-40.127 22.054 0 40.128 17.908 40.128 40.127 0 22.054-17.908 40.128-40.128 40.128-22.219 0-40.127-18.074-40.127-40.128Z" fill="#000" opacity=".1"/><path d="M591.025 337.248h118.393" stroke="url('#paint4_linear_22_323')" stroke-width="1.658" stroke-miterlimit="10"/><path d="m568.806 432.758 107.449 52.233" stroke="url('#paint5_linear_22_323')" stroke-width="1.658" stroke-miterlimit="10"/><path d="m506.458 508.537 37.143 124.196" stroke="url('#paint6_linear_22_323')" stroke-width="1.658" stroke-miterlimit="10"/><g opacity=".3"><path d="M497.054 513.778c-3.384-4.319-2.461-10.644 1.846-14.037 4.308-3.394 10.615-2.623 13.999 1.851 3.385 4.319 2.616 10.644-1.846 14.037-1.846 1.389-3.999 2.006-6.153 2.006-2.923 0-6-1.389-7.846-3.857Z" fill="url('#paint7_linear_22_323')"/><path d="M497.054 513.778c-3.384-4.319-2.461-10.644 1.846-14.037 4.308-3.394 10.615-2.623 13.999 1.851 3.385 4.319 2.616 10.644-1.846 14.037-1.846 1.389-3.999 2.006-6.153 2.006-2.923 0-6-1.389-7.846-3.857Z" fill="url('#paint8_linear_22_323')"/></g><g opacity=".3"><path d="M563.512 440.556c-4.92-2.464-6.919-8.471-4.459-13.4s8.458-6.931 13.378-4.467c4.921 2.465 6.92 8.472 4.614 13.401-1.692 3.542-5.229 5.545-8.919 5.545-1.692 0-3.23-.463-4.614-1.079Z" fill="url('#paint9_linear_22_323')"/><path d="M563.512 440.556c-4.92-2.464-6.919-8.471-4.459-13.4s8.458-6.931 13.378-4.467c4.921 2.465 6.92 8.472 4.614 13.401-1.692 3.542-5.229 5.545-8.919 5.545-1.692 0-3.23-.463-4.614-1.079Z" fill="url('#paint10_linear_22_323')"/></g><g opacity=".3"><path d="M580 335.635a9.98 9.98 0 0 1 10-10 9.98 9.98 0 0 1 10 10 9.98 9.98 0 0 1-10 10 9.98 9.98 0 0 1-10-10Z" fill="url('#paint11_linear_22_323')"/><path d="M580 335.635a9.98 9.98 0 0 1 10-10 9.98 9.98 0 0 1 10 10 9.98 9.98 0 0 1-10 10 9.98 9.98 0 0 1-10-10Z" fill="url('#paint12_linear_22_323')"/></g><g opacity=".3"><path d="M558.056 245.09c-2.467-4.929-.463-10.936 4.472-13.401 4.935-2.464 10.949-.462 13.416 4.467 2.467 4.929.463 10.936-4.472 13.4-1.388.77-2.93 1.079-4.472 1.079-3.701 0-7.248-2.003-8.944-5.545Z" fill="url('#paint13_linear_22_323')"/><path d="M558.056 245.09c-2.467-4.929-.463-10.936 4.472-13.401 4.935-2.464 10.949-.462 13.416 4.467 2.467 4.929.463 10.936-4.472 13.4-1.388.77-2.93 1.079-4.472 1.079-3.701 0-7.248-2.003-8.944-5.545Z" fill="url('#paint14_linear_22_323')"/></g><path d="M676 228.635c22.091 0 40-17.909 40-40.001 0-22.091-17.909-39.999-40-39.999s-40 17.908-40 39.999c0 22.092 17.909 40.001 40 40.001Z" fill="url('#paint15_linear_22_323')"/><path d="M676 228.635c22.091 0 40-17.909 40-40.001 0-22.091-17.909-39.999-40-39.999s-40 17.908-40 39.999c0 22.092 17.909 40.001 40 40.001Z" fill="url('#paint16_linear_22_323')"/><path d="M709 376.635c22.091 0 40-17.909 40-40 0-22.092-17.909-40-40-40s-40 17.908-40 40c0 22.091 17.909 40 40 40Z" fill="url('#paint17_linear_22_323')"/><path d="M709 376.635c22.091 0 40-17.909 40-40 0-22.092-17.909-40-40-40s-40 17.908-40 40c0 22.091 17.909 40 40 40Z" fill="url('#paint18_linear_22_323')"/><path d="M676 524.635c22.091 0 40-17.909 40-40 0-22.092-17.909-40-40-40s-40 17.908-40 40c0 22.091 17.909 40 40 40Z" fill="url('#paint19_linear_22_323')"/><path d="M676 524.635c22.091 0 40-17.909 40-40 0-22.092-17.909-40-40-40s-40 17.908-40 40c0 22.091 17.909 40 40 40Z" fill="url('#paint20_linear_22_323')"/><path d="M543 671.635c22.091 0 40-17.909 40-40 0-22.092-17.909-40-40-40s-40 17.908-40 40c0 22.091 17.909 40 40 40Z" fill="url('#paint21_linear_22_323')"/><path d="m506.292 165.793 37.309-124.03" stroke="url('#paint22_linear_22_323')" stroke-width="1.658" stroke-miterlimit="10"/><g opacity=".3"><path d="M498.909 172.624c-4.317-3.401-5.242-9.74-1.85-14.069 3.392-4.33 9.714-5.257 14.032-1.856 4.317 3.402 5.242 9.741 1.85 14.07-2.005 2.629-4.934 3.866-8.018 3.866-2.159 0-4.318-.619-6.014-2.011Z" fill="url('#paint23_linear_22_323')"/><path d="M498.909 172.624c-4.317-3.401-5.242-9.74-1.85-14.069 3.392-4.33 9.714-5.257 14.032-1.856 4.317 3.402 5.242 9.741 1.85 14.07-2.005 2.629-4.934 3.866-8.018 3.866-2.159 0-4.318-.619-6.014-2.011Z" fill="url('#paint24_linear_22_323')"/></g><path d="M543 81.635c22.091 0 40-17.91 40-40 0-22.092-17.909-40-40-40s-40 17.908-40 40c0 22.09 17.909 40 40 40Z" fill="url('#paint25_linear_22_323')"/><path d="M543 81.635c22.091 0 40-17.91 40-40 0-22.092-17.909-40-40-40s-40 17.908-40 40c0 22.09 17.909 40 40 40Z" fill="url('#paint26_linear_22_323')"/><path d="M156.393 337.248H38" stroke="url('#paint27_linear_22_323')" stroke-width="1.658" stroke-miterlimit="10"/><path d="M180.574 432.758 73.125 484.991" stroke="url('#paint28_linear_22_323')" stroke-width="1.658" stroke-miterlimit="10"/><path d="M180.574 242.232 73.125 190" stroke="url('#paint29_linear_22_323')" stroke-width="1.658" stroke-miterlimit="10"/><path d="m242.922 508.537-37.143 124.196" stroke="url('#paint30_linear_22_323')" stroke-width="1.658" stroke-miterlimit="10"/><g opacity=".3"><path d="M249.946 513.778c3.384-4.319 2.461-10.644-1.846-14.037-4.308-3.394-10.615-2.623-13.999 1.851-3.385 4.319-2.616 10.644 1.846 14.037 1.846 1.389 3.999 2.006 6.153 2.006 2.923 0 5.846-1.389 7.846-3.857Z" fill="url('#paint31_linear_22_323')"/><path d="M249.946 513.778c3.384-4.319 2.461-10.644-1.846-14.037-4.308-3.394-10.615-2.623-13.999 1.851-3.385 4.319-2.616 10.644 1.846 14.037 1.846 1.389 3.999 2.006 6.153 2.006 2.923 0 5.846-1.389 7.846-3.857Z" fill="url('#paint32_linear_22_323')"/></g><g opacity=".3"><path d="M183.488 440.556c4.92-2.464 6.919-8.471 4.459-13.4s-8.458-6.931-13.378-4.467c-4.921 2.465-6.92 8.472-4.614 13.401 1.692 3.542 5.229 5.545 8.919 5.545 1.692 0 3.23-.463 4.614-1.079Z" fill="url('#paint33_linear_22_323')"/><path d="M183.488 440.556c4.92-2.464 6.919-8.471 4.459-13.4s-8.458-6.931-13.378-4.467c-4.921 2.465-6.92 8.472-4.614 13.401 1.692 3.542 5.229 5.545 8.919 5.545 1.692 0 3.23-.463 4.614-1.079Z" fill="url('#paint34_linear_22_323')"/></g><g opacity=".3"><path d="M165 335.635a9.98 9.98 0 0 0-10-10 9.98 9.98 0 0 0-10 10 9.98 9.98 0 0 0 10 10 9.98 9.98 0 0 0 10-10Z" fill="url('#paint35_linear_22_323')"/><path d="M165 335.635a9.98 9.98 0 0 0-10-10 9.98 9.98 0 0 0-10 10 9.98 9.98 0 0 0 10 10 9.98 9.98 0 0 0 10-10Z" fill="url('#paint36_linear_22_323')"/></g><g opacity=".3"><path d="M187.944 245.09c2.467-4.929.463-10.936-4.472-13.401-4.935-2.464-10.949-.462-13.416 4.467-2.467 4.929-.463 10.936 4.472 13.4 1.388.77 2.93 1.079 4.472 1.079 3.701 0 7.248-2.003 8.944-5.545Z" fill="url('#paint37_linear_22_323')"/><path d="M187.944 245.09c2.467-4.929.463-10.936-4.472-13.401-4.935-2.464-10.949-.462-13.416 4.467-2.467 4.929-.463 10.936 4.472 13.4 1.388.77 2.93 1.079 4.472 1.079 3.701 0 7.248-2.003 8.944-5.545Z" fill="url('#paint38_linear_22_323')"/></g><path d="M165.817 632.734c0-22.054 17.908-40.128 40.127-40.128 22.22 0 40.128 17.908 40.128 40.128 0 22.219-17.908 40.127-40.128 40.127-22.219 0-40.127-18.074-40.127-40.127Z" fill="#000" opacity=".1"/><path d="M33 188.634c0-21.983 17.851-39.999 40-39.999s40 17.851 40 39.999c0 21.984-17.851 40.001-40 40.001s-40-18.017-40-40.001Z" fill="url('#paint39_linear_22_323')"/><path d="M33 188.634c0-21.983 17.851-39.999 40-39.999s40 17.851 40 39.999c0 21.984-17.851 40.001-40 40.001s-40-18.017-40-40.001Z" fill="url('#paint40_linear_22_323')"/><path d="M0 336.635c0-21.984 17.851-40 40-40s40 17.851 40 40c0 21.983-17.851 40-40 40s-40-18.017-40-40Z" fill="url('#paint41_linear_22_323')"/><path d="M0 336.635c0-21.984 17.851-40 40-40s40 17.851 40 40c0 21.983-17.851 40-40 40s-40-18.017-40-40Z" fill="url('#paint42_linear_22_323')"/><path d="M33 484.635c0-21.984 17.851-40 40-40s40 17.851 40 40c0 21.983-17.851 40-40 40s-40-18.017-40-40Z" fill="url('#paint43_linear_22_323')"/><path d="M33 484.635c0-21.984 17.851-40 40-40s40 17.851 40 40c0 21.983-17.851 40-40 40s-40-18.017-40-40Z" fill="url('#paint44_linear_22_323')"/><path d="M165 631.635c0-21.984 17.851-40 40-40s40 17.851 40 40c0 22.148-17.851 40-40 40s-40-18.017-40-40Z" fill="url('#paint45_linear_22_323')"/><path d="M165 631.635c0-21.984 17.851-40 40-40s40 17.851 40 40c0 22.148-17.851 40-40 40s-40-18.017-40-40Z" fill="url('#paint46_linear_22_323')"/><path d="m243.087 165.793-37.308-124.03" stroke="url('#paint47_linear_22_323')" stroke-width="1.658" stroke-miterlimit="10"/><g opacity=".3"><path d="M248.091 172.624c4.317-3.401 5.242-9.74 1.85-14.069-3.392-4.33-9.714-5.257-14.032-1.856-4.317 3.402-5.242 9.741-1.85 14.07 2.005 2.629 4.934 3.866 8.018 3.866 2.159 0 4.318-.619 6.014-2.011Z" fill="url('#paint48_linear_22_323')"/><path d="M248.091 172.624c4.317-3.401 5.242-9.74 1.85-14.069-3.392-4.33-9.714-5.257-14.032-1.856-4.317 3.402-5.242 9.741-1.85 14.07 2.005 2.629 4.934 3.866 8.018 3.866 2.159 0 4.318-.619 6.014-2.011Z" fill="url('#paint49_linear_22_323')"/></g><path d="M165.817 41.762c0-22.053 17.908-40.127 40.127-40.127 22.22 0 40.128 17.908 40.128 40.127 0 22.054-17.908 40.128-40.128 40.128-22.219 0-40.127-18.074-40.127-40.128Z" fill="#000" opacity=".1"/><path d="M166 41.635c0-21.984 17.851-40 40-40s40 17.85 40 40c0 21.983-17.851 40-40 40s-40-18.017-40-40Z" fill="url('#paint50_linear_22_323')"/><path d="M559 336.469c0 102.023-82.902 185.166-185 185.166v-66.746c65.197 0 118.149-52.999 118.149-118.254S439.197 218.381 374 218.381v-66.745c102.098-.332 185 82.81 185 184.833Z" fill="#FFCD01"/><path d="M190 336.469c0 102.023 82.902 185.166 185 185.166v-66.746c-65.197 0-118.149-52.999-118.149-118.254S309.803 218.381 375 218.381v-66.745c-102.098-.332-185 82.81-185 184.833Z" fill="#FFCD01"/><path d="M380.752 269c-33.258 11.191-61.313 34.005-72.752 68 11.308 33.607 39.1 56.676 72.752 68 29.925-23.019 46.243-41.506 58.248-68-17.231-11.542-24.469-17.484-38.439-35.345-18.718 8.673-35.01 18.78-49.443 34.976 5.18 7.361 13.779 14.231 20.731 19.876 10.132-7.429 17.859-14.667 22.865-20.878 3.138 3.826 6.677 6.372 10.047 8.5-8.706 14.777-18.476 22.89-30.541 30.639-18.122-9.571-32.689-26.139-39.769-40.148 13.27-21.828 34.084-36.567 57.734-44.781-3.832-6.696-8.854-12.931-11.433-20.839Z" fill="#FFE30B"/><g clip-path="url('#clip0_22_323')" fill="#333"><path d="M68.598 205.79a.623.623 0 1 1-1.247 0v-7.863c0-.53.23-1.008.602-1.352.362-.336.849-.54 1.388-.54h7.314c.54 0 1.035.203 1.388.54.371.345.602.822.602 1.352v7.863a.623.623 0 1 1-1.247 0v-7.863a.6.6 0 0 0-.195-.441.817.817 0 0 0-.548-.204h-3.034v8.508a.623.623 0 1 1-1.246 0v-8.508H69.34a.816.816 0 0 0-.54.203.612.612 0 0 0-.203.442v7.863ZM66.838 187.651h4.086c.345 0 .62.275.62.619v3.803a.615.615 0 0 1-.62.619h-4.086a.615.615 0 0 1-.619-.619v-3.803c0-.344.274-.619.62-.619Zm0-7.561h4.086c.345 0 .62.274.62.619v3.803a.615.615 0 0 1-.62.619h-4.086a.616.616 0 0 1-.619-.619v-3.803c0-.345.274-.619.62-.619Zm3.458 1.247h-2.83v2.547h2.83v-2.547Zm6.827 2.547c.345 0 .62.283.62.628a.615.615 0 0 1-.62.619h-2.042a.623.623 0 0 1-.629-.619v-3.803c0-.345.283-.619.629-.619.345 0 .619.274.619.619v3.175h1.423Zm-2.042 3.767h4.076c.346 0 .628.275.628.619v3.803a.623.623 0 0 1-.627.619H75.08a.623.623 0 0 1-.629-.619v-3.803c0-.344.284-.619.629-.619Zm3.458 1.247H75.7v2.547h2.839v-2.547Zm-8.243 0h-2.83v2.547h2.83v-2.547ZM83.508 188.156a.622.622 0 0 1-1.078-.009l-5.36-9.083a6.797 6.797 0 0 1-.645-1.601 6.746 6.746 0 0 1-.212-1.698c0-1.866.751-3.555 1.98-4.784A6.745 6.745 0 0 1 82.978 169c1.866 0 3.555.761 4.785 1.981a6.776 6.776 0 0 1 1.98 4.785 6.79 6.79 0 0 1-.22 1.698 6.629 6.629 0 0 1-.637 1.592l-5.378 9.1Zm-.53-1.539 4.829-8.181a5.497 5.497 0 0 0 .69-2.671 5.5 5.5 0 0 0-1.619-3.9 5.503 5.503 0 0 0-3.9-1.618 5.506 5.506 0 0 0-5.518 5.518c0 .487.061.946.168 1.389.115.442.291.866.504 1.264l4.846 8.199Z"/><path d="M82.978 172.157c.99 0 1.893.407 2.547 1.061a3.567 3.567 0 0 1 1.061 2.547c0 .999-.407 1.902-1.061 2.556a3.624 3.624 0 0 1-2.547 1.052c-1 0-1.901-.406-2.556-1.052a3.593 3.593 0 0 1-1.052-2.556 3.56 3.56 0 0 1 1.052-2.547 3.604 3.604 0 0 1 2.556-1.061Zm1.663 1.937a2.356 2.356 0 0 0-4.024 1.672 2.357 2.357 0 0 0 4.024 1.671 2.348 2.348 0 0 0 0-3.343ZM85.86 199.378a.622.622 0 0 1-.618-.628c0-.345.274-.619.619-.619h2.264a1.9 1.9 0 0 1 1.769 1.167l2.927 7.129c.124.3.168.601.132.902-.061.61-.469 1.176-1.008 1.459a1.932 1.932 0 0 1-.893.212h-36.1c-.318 0-.619-.071-.893-.212a1.93 1.93 0 0 1-1.017-1.459 2.001 2.001 0 0 1 .133-.902l2.936-7.129a1.9 1.9 0 0 1 1.769-1.167h2.246c.345 0 .62.275.62.619a.623.623 0 0 1-.62.628H57.88c-.274 0-.513.133-.62.398l-2.926 7.128a.573.573 0 0 0-.053.292.682.682 0 0 0 .345.487c.097.044.203.07.327.07h36.1c.124 0 .23-.026.318-.07a.635.635 0 0 0 .345-.487.563.563 0 0 0-.044-.292l-2.927-7.128c-.107-.266-.345-.398-.62-.398h-2.264Z"/><path d="M82.35 190.835a.623.623 0 1 1 1.247 0v14.955a.622.622 0 0 1-.619.627H63.027a.622.622 0 0 1-.62-.627v-27.336c0-.531.23-1.008.602-1.353a2.022 2.022 0 0 1 1.388-.549h9.843c.345 0 .62.283.62.629a.622.622 0 0 1-.62.627h-9.843a.775.775 0 0 0-.548.204.603.603 0 0 0-.194.442v26.716H82.35v-14.335Z"/></g><mask id="mask0_22_323" style="mask-type:luminance" maskUnits="userSpaceOnUse" x="20" y="317" width="40" height="40"><path d="M20 317h40v40H20v-40Z" fill="#fff"/></mask><g mask="url('#mask0_22_323')"><path d="m41.566 326.411 3.131-8.825H30.919l-3.757 18.162h11.09l-7.333 20.666 21.92-25.677H40.03l.667-1.878" stroke="#333" stroke-miterlimit="10" stroke-linecap="round" stroke-linejoin="round"/></g><g clip-path="url('#clip1_22_323')"><mask id="mask1_22_323" style="mask-type:luminance" maskUnits="userSpaceOnUse" x="53" y="465" width="40" height="40"><path d="M53 465h40v40H53v-40Z" fill="#fff"/></mask><g mask="url('#mask1_22_323')"><path d="M55.099 487.045v-3.275c0-1.228.995-2.224 2.224-2.224h.364M88.39 481.546h.287c1.229 0 2.224.996 2.224 2.224v3.197M57.692 485.14v-3.738a3.697 3.697 0 0 1 2.483-3.492M64.93 477.92a3.697 3.697 0 0 1 2.455 3.482l.02.86" stroke="#333" stroke-miterlimit="10" stroke-linecap="round" stroke-linejoin="round"/><path d="M62.542 478.938h-.007a2.992 2.992 0 0 1-2.991-2.992v-2.544a2.991 2.991 0 0 1 2.991-2.991h.007a2.991 2.991 0 0 1 2.991 2.991v2.544a2.992 2.992 0 0 1-2.991 2.992Z" stroke="#333" stroke-miterlimit="10" stroke-linecap="round" stroke-linejoin="round"/><path d="M59.544 474.674v-1.265a2.996 2.996 0 0 1 2.994-2.998 2.996 2.996 0 0 1 2.995 2.998l-5.99 1.265ZM85.144 470.827a1.834 1.834 0 0 1 3.57.585v6.6a1.83 1.83 0 0 1-.745 1.475M85.853 477.919a3.698 3.698 0 0 1 2.455 3.483v3.737M78.615 482.266v-.864a3.698 3.698 0 0 1 2.456-3.483" stroke="#333" stroke-miterlimit="10" stroke-linecap="round" stroke-linejoin="round"/><path d="M83.465 478.938h-.007a2.992 2.992 0 0 1-2.991-2.992v-2.544a2.991 2.991 0 0 1 2.991-2.991h.007a2.991 2.991 0 0 1 2.991 2.991v2.544a2.992 2.992 0 0 1-2.991 2.992Z" stroke="#333" stroke-miterlimit="10" stroke-linecap="round" stroke-linejoin="round"/><path d="M80.467 474.674v-1.265a2.996 2.996 0 0 1 2.995-2.998 2.996 2.996 0 0 1 2.994 2.998l-5.99 1.265ZM78.557 498.361a43.58 43.58 0 0 1-5.557.349c-1.935 0-3.804-.123-5.568-.351M75.836 481.997c9.378.594 16.578 4.089 16.578 8.312 0 2.041-1.682 3.912-4.48 5.368M58.105 495.697c-2.82-1.458-4.52-3.337-4.52-5.388 0-4.382 7.754-7.981 17.648-8.367" stroke="#333" stroke-miterlimit="10" stroke-linecap="round" stroke-linejoin="round"/><path d="M57.692 497.483c0-1.305.676-2.451 1.697-3.109M65.654 494.352a3.694 3.694 0 0 1 1.731 3.131v2.202M60.2 497.554a2.977 2.977 0 0 1-.656-1.87v-6.201a2.991 2.991 0 0 1 2.991-2.991h.007a2.991 2.991 0 0 1 2.991 2.991v6.201a2.991 2.991 0 0 1-1.709 2.703M88.308 497.63v-.147a3.696 3.696 0 0 0-2.492-3.495M81.128 493.981a3.697 3.697 0 0 0-2.513 3.502v2.231" stroke="#333" stroke-miterlimit="10" stroke-linecap="round" stroke-linejoin="round"/><path d="M83.465 495.019h-.007a2.991 2.991 0 0 1-2.991-2.992v-2.544a2.991 2.991 0 0 1 2.991-2.991h.007a2.991 2.991 0 0 1 2.991 2.991v2.544a2.991 2.991 0 0 1-2.991 2.992ZM64.272 504.414h-7.71a1.462 1.462 0 0 1-1.463-1.462v-3.101c0-1.228.995-2.224 2.224-2.224h4.725c1.228 0 2.224.996 2.224 2.224v4.563Z" stroke="#333" stroke-miterlimit="10" stroke-linecap="round" stroke-linejoin="round"/><path d="m64.249 501.675 3.136-1.958a1.147 1.147 0 0 1 1.255 1.919l-4.391 2.778M81.728 501.675l-3.136-1.958a1.147 1.147 0 0 0-1.256 1.919l4.392 2.778v-2.739ZM90.901 499.93v-.079a2.224 2.224 0 0 0-2.224-2.224h-4.725a2.224 2.224 0 0 0-2.224 2.224v4.563h7.71c.779 0 1.413-.608 1.459-1.375M78.472 489.555a3.677 3.677 0 1 0-2.95 3.605l1.699.995v-1.838a3.667 3.667 0 0 0 1.251-2.762Z" stroke="#333" stroke-miterlimit="10" stroke-linecap="round" stroke-linejoin="round"/><path d="M73.047 490.195c.754 0 .755-1.172 0-1.172-.754 0-.755 1.172 0 1.172ZM74.794 490.195c.755 0 .756-1.172 0-1.172-.754 0-.755 1.172 0 1.172ZM76.542 490.195c.754 0 .755-1.172 0-1.172-.754 0-.755 1.172 0 1.172Z" fill="#333"/><path d="M74.472 472.709a3.678 3.678 0 0 1-4.117 5.035l-1.699.995v-1.838a3.677 3.677 0 0 1 3.858-6.151" stroke="#333" stroke-miterlimit="10" stroke-linecap="round" stroke-linejoin="round"/><path d="M69.335 474.779c.754 0 .755-1.172 0-1.172-.754 0-.755 1.172 0 1.172ZM71.083 474.779c.754 0 .755-1.172 0-1.172-.754 0-.756 1.172 0 1.172ZM72.83 474.779c.754 0 .755-1.172 0-1.172-.754 0-.755 1.172 0 1.172Z" fill="#333"/><path d="M79.689 469.264a3.677 3.677 0 1 0-2.95 3.605l1.698.995v-1.838a3.667 3.667 0 0 0 1.252-2.762ZM75.053 468.326l1.916 1.916M76.969 468.326l-1.916 1.916" stroke="#333" stroke-miterlimit="10" stroke-linecap="round" stroke-linejoin="round"/></g></g><g clip-path="url('#clip2_22_323')" fill="#333"><path d="M219.142 617.858A19.866 19.866 0 0 0 205 612a19.866 19.866 0 0 0-14.142 5.858A19.866 19.866 0 0 0 185 632c0 5.342 2.08 10.365 5.858 14.142A19.866 19.866 0 0 0 205 652c4.175 0 8.176-1.274 11.569-3.683a19.954 19.954 0 0 0 7.209-9.418.584.584 0 1 0-1.096-.402 18.786 18.786 0 0 1-6.789 8.868A18.705 18.705 0 0 1 205 650.833a18.71 18.71 0 0 1-13.317-5.516A18.71 18.71 0 0 1 186.167 632c0-5.03 1.959-9.76 5.516-13.317A18.71 18.71 0 0 1 205 613.167c5.03 0 9.76 1.959 13.317 5.516A18.71 18.71 0 0 1 223.833 632c0 1.34-.142 2.678-.42 3.976a.583.583 0 1 0 1.141.245c.296-1.378.446-2.799.446-4.221 0-5.342-2.08-10.365-5.858-14.142Z"/><path d="M195.484 644.116a.584.584 0 0 0 .235.426 15.474 15.474 0 0 0 9.281 3.061c8.603 0 15.602-7 15.602-15.603 0-3.371-1.058-6.58-3.06-9.281a.584.584 0 0 0-.882-.065l-4.555 4.555a7.487 7.487 0 0 0-3.329-.806l-.06-.001c-.072 0-.144.003-.216.005a7.4 7.4 0 0 0-.348-.909l5.587-5.586a.588.588 0 0 0 .168-.47.587.587 0 0 0-.257-.428 15.528 15.528 0 0 0-8.65-2.616c-8.603 0-15.602 6.999-15.602 15.602 0 3.094.904 6.085 2.616 8.65a.584.584 0 0 0 .898.089l4.668-4.669v.667c0 .339.191.638.499.781a.852.852 0 0 0 .918-.126l1.452-1.234a7.519 7.519 0 0 0 1.055.043c.124.397.28.779.465 1.145l-6.315 6.314a.588.588 0 0 0-.17.456Zm13.353-15.466c0-.365-.026-.725-.076-1.08h.006c3.499.026 6.342 2.896 6.337 6.396a6.38 6.38 0 0 1-3.395 5.635.858.858 0 0 0-.456.759v1.02l-1.048-.891a.867.867 0 0 0-.669-.197 6.398 6.398 0 0 1-6.846-4.22c3.496-.661 6.147-3.737 6.147-7.422Zm-7.554 6.387a6.41 6.41 0 0 1-.819-.052.866.866 0 0 0-.669.197l-1.048.891v-1.02a.86.86 0 0 0-.456-.759 6.423 6.423 0 0 1-2.335-2.119.583.583 0 0 0-.973.645 7.608 7.608 0 0 0 2.093 2.104l-4.474 4.474a14.371 14.371 0 0 1-2.037-7.398c0-7.96 6.475-14.435 14.435-14.435 2.623 0 5.166.702 7.398 2.037l-4.84 4.839a7.548 7.548 0 0 0-.954-1.153 7.514 7.514 0 0 0-5.38-2.192c-4.139.031-7.501 3.425-7.495 7.565 0 .493.049.986.144 1.466a.585.585 0 0 0 1.145-.227 6.353 6.353 0 0 1-.122-1.241c-.005-3.5 2.838-6.369 6.337-6.396h.05c1.698 0 3.294.657 4.499 1.853a6.344 6.344 0 0 1 1.888 4.534 6.394 6.394 0 0 1-6.387 6.387Zm1.31 3.335a7.546 7.546 0 0 0 6.958 3.093l1.452 1.234a.852.852 0 0 0 .918.126.853.853 0 0 0 .499-.781v-1.502a7.544 7.544 0 0 0 3.851-6.574 7.555 7.555 0 0 0-3.14-6.134l3.865-3.865a14.308 14.308 0 0 1 2.439 8.031c0 7.96-6.475 14.436-14.435 14.436-2.891 0-5.654-.842-8.032-2.44l5.625-5.624Z"/></g><g clip-path="url('#clip3_22_323')" fill="#333"><path d="M695.395 497.663a.586.586 0 0 0-.585.586v6.127c0 .755 1.17.755 1.17 0v-6.127a.586.586 0 0 0-.585-.586ZM695.395 484.462h-4.596v-2.111h1.405c.856 0 1.552-.696 1.552-1.552v-14.247c0-.856-.696-1.552-1.552-1.552h-21.838c-.856 0-1.552.696-1.552 1.552v2.102c0 .755 1.17.755 1.17 0v-2.102c0-.21.171-.381.382-.381h21.838c.21 0 .381.171.381.381v11.35h-1.786v-6.236a.587.587 0 0 0-.797-.546c-.154.059-3.383 1.378-4.07 6.782h-15.948v-6.204c0-.755-1.17-.755-1.17 0v9.101c0 .856.696 1.552 1.552 1.552h7.863v2.111h-13.291c1.296-1.295 1.423-3.346 1.423-5.069a.585.585 0 0 0-.585-.586h-3.161v-1.105c1.877.399 3.925-1.141 3.899-3.094-.003-.262-.035-.527-.277-.687-1.112-.734-2.643-.428-3.622.373v-1.056c1.672-1.154 1.797-3.873.189-5.142a2.25 2.25 0 0 0-.533-.328c-.825-.337-1.732 1.133-1.929 1.7-.464 1.34-.044 2.882 1.102 3.732v1.088c-.752-.612-1.733-.913-2.692-.721-.396.079-1.09.259-1.176.739-.372 2.066 1.969 3.796 3.868 3.398v1.103h-3.395a.586.586 0 0 0-.586.586c0 1.72.094 3.774 1.39 5.069h-2.248a.585.585 0 0 0-.585.585v19.329c0 .755 1.17.755 1.17 0v-2.732h10.576v2.732c0 .755 1.171.755 1.171 0v-14.908h20.699c.003.204.023 1.303.025 1.632h-9.906c-2.315 0-4.029.602-5.097 1.79-1.282 1.427-1.113 3.156-1.105 3.228a.585.585 0 0 0 .582.523h7.563v1.054h-2.303c-.755 0-.755 1.171 0 1.171h2.303v4.924h-7.493c-.755 0-.755 1.171 0 1.171h7.869a.58.58 0 0 0 .418 0h7.869c.755 0 .755-1.171 0-1.171h-7.493v-7.149h3.911c1.344 0 2.315-.324 2.97-.99 1.147-1.168 1.112-3.124 1.068-5.6l-.01-.583h4.003v5.503c0 .755 1.17.755 1.17 0v-9.924a.585.585 0 0 0-.585-.585Zm-31.803-9.433c.754-.478 1.409-.365 1.75-.245-.103 1.214-1.578 2.097-2.706 1.714a2.013 2.013 0 0 1 .956-1.469Zm-3.891 1.218c-.497-.316-.92-.859-.975-1.463 1.173-.412 2.551.501 2.704 1.714-.569.193-1.23.065-1.729-.251Zm2.358-7.253c.981.745.937 2.447-.003 3.204-.29-.239-.727-.74-.727-1.596 0-.892.446-1.385.73-1.608Zm-3.417 10.984h6.539c-.099 3.162-1.042 4.41-3.269 4.41-2.257 0-3.175-1.208-3.27-4.41Zm30.272 14.853c-.423.43-1.122.64-2.135.64h-12.046a3.235 3.235 0 0 1 .796-1.798c.836-.931 2.258-1.402 4.226-1.402h9.891c-.048 1.147-.222 2.04-.732 2.56Zm3.671-15.758v1.726a.382.382 0 0 1-.381.382h-1.405v-2.108h1.786Zm-3.873-5.382c.319-.421.639-.734.916-.961v14.662a5.947 5.947 0 0 1-.91-.985c-1.141-1.541-1.744-3.75-1.744-6.39 0-2.636.601-4.823 1.738-6.326Zm-2.751 8.66c.112.788.277 1.489.479 2.111h-2.099v-2.111h1.62Zm-15.977-1.552v-1.726h15.844c-.037.702-.033 1.406.013 2.107h-15.475a.38.38 0 0 1-.382-.381Zm9.415 1.552h3.771v2.111h-3.771v-2.111Zm7.501 3.282c.61 1.303 1.367 2.145 1.979 2.665H657.19v-2.665h29.71Zm-29.71 14.84v-4.917h10.576v4.917H657.19Zm10.576-6.088H657.19v-4.917h10.576v4.917Zm23.033-6.087v-2.665h4.011v2.665h-4.011Z"/><path d="M660.273 492.512h4.449c.755 0 .755-1.171 0-1.171h-4.449c-.755 0-.755 1.171 0 1.171ZM664.722 497.429h-4.449c-.755 0-.755 1.171 0 1.171h4.449c.755 0 .755-1.171 0-1.171Z"/></g><path d="M704.466 332.536a1.832 1.832 0 0 0-1.316-.592 1.828 1.828 0 0 0-1.853 1.792.587.587 0 0 0 .576.596h.01c.319 0 .58-.256.586-.576a.65.65 0 0 1 .662-.64.639.639 0 0 1 .47.211.585.585 0 1 0 .865-.791ZM707.583 334.446a1.677 1.677 0 0 0-.959-.914 1.677 1.677 0 0 0-2.15.988.585.585 0 1 0 1.098.408.505.505 0 0 1 .646-.297c.13.048.232.145.287.274a.585.585 0 0 0 1.078-.459ZM711.36 329.257a.586.586 0 0 0-.829 0l-.552.554a.585.585 0 1 0 .829.828l.553-.554a.586.586 0 0 0-.001-.828ZM707.714 336.821h-.781a.585.585 0 0 0 0 1.172h.781a.586.586 0 0 0 0-1.172ZM713.702 336.821h-.781a.586.586 0 1 0 0 1.172h.781a.586.586 0 0 0 0-1.172Z" fill="#333"/><path d="m728.981 347.386-.152-.824a1.112 1.112 0 0 0-1.295-.889l-3.106.57 1.407-.94a1.11 1.11 0 0 0 .349-1.467l-.425-.754a1.115 1.115 0 0 0-1.113-.554c.157-.865.237-1.748.237-2.647a.979.979 0 0 0-.582-.894 4.494 4.494 0 0 0 .036-3.4.708.708 0 0 0-.398-.399 4.458 4.458 0 0 0-1.874-.313 3.097 3.097 0 0 0-3.087-2.941c-.217 0-.429.024-.634.067a4.837 4.837 0 0 0-.273-2.579.73.73 0 0 0-.405-.409 4.817 4.817 0 0 0-4.353.4 5.798 5.798 0 0 0-1.38-2.208.99.99 0 0 0-.704-.292.99.99 0 0 0-.704.292l-2.837 2.844a2.942 2.942 0 0 0-2.476-.704 2.967 2.967 0 0 0-1.605.844 2.974 2.974 0 0 0-2.185-.156v-2.191a2.767 2.767 0 0 0-2.713-2.765v-1.243a.977.977 0 0 0 .81-.961v-2.815a.978.978 0 0 0-.976-.977h-4.765a.978.978 0 0 0-.977.977v2.815c0 .482.351.882.81.961v1.243a2.767 2.767 0 0 0-2.713 2.764v17.102c-1.17 1.056-1.898 2.53-1.898 4.16 0 3.207 2.814 5.816 6.274 5.816l23.452-.007a2.684 2.684 0 0 0 2.654-3.101l4.684.842a1.1 1.1 0 0 0 .844-.19c.244-.174.409-.443.453-.739l.127-.851a1.108 1.108 0 0 0-.851-1.245l-1.651-.379 3.103-.57c.293-.054.547-.218.715-.463a1.1 1.1 0 0 0 .177-.83Zm-6.698-11.344c.352 0 .699.056 1.033.166a3.32 3.32 0 0 1-.28 2.694h-1.579l.504-.505a.586.586 0 1 0-.83-.827l-.266.267a2.711 2.711 0 0 0-.63-1.082 3.275 3.275 0 0 1 2.048-.713Zm-3.305-2.936c1.059 0 1.919.864 1.919 1.925l-.001.059a4.44 4.44 0 0 0-1.673.992 2.333 2.333 0 0 0-.236-.079 2.718 2.718 0 0 0-1.619-2.015c.342-.53.935-.882 1.61-.882Zm-3.097-3.264c.398 0 .789.065 1.166.192a3.67 3.67 0 0 1-.145 2.706 3.1 3.1 0 0 0-.75 1.041 2.742 2.742 0 0 0-1.559.603 3.09 3.09 0 0 0-.443-.615l1.344-1.347a.586.586 0 1 0-.83-.827l-1.468 1.472a3.076 3.076 0 0 0-.899-.267 3.659 3.659 0 0 1 1.001-1.884 3.622 3.622 0 0 1 2.583-1.074Zm-4.49 9.06h-.508a.585.585 0 0 0-1.09 0h-.597a.587.587 0 0 0-.914-.72l-.552.554a.566.566 0 0 0-.116.166h-1.193a4.635 4.635 0 0 1-.751-2.365h9.296a4.636 4.636 0 0 1-.752 2.365h-1.241a.566.566 0 0 0-.116-.166l-.552-.554a.586.586 0 0 0-.914.72Zm-1.362-3.536a1.922 1.922 0 0 1 1.852-1.423c.885 0 1.631.604 1.852 1.423h-3.704Zm1.198-7.205a4.625 4.625 0 0 1 1.106 2.069 4.81 4.81 0 0 0-.743 1.067.58.58 0 0 0-.306-.087h-.78a.586.586 0 1 0 0 1.172h.685a4.818 4.818 0 0 0-.091.491 3.105 3.105 0 0 0-.662.258 2.958 2.958 0 0 0-1.804-1.377l-.001-.005a2.988 2.988 0 0 0-.235-.751l2.831-2.837Zm-10.592 5.287a1.788 1.788 0 0 1 2.754-2.028.589.589 0 0 0 .839-.145 1.774 1.774 0 0 1 1.494-.803 1.778 1.778 0 0 1 1.781 1.781c0 .303.232.556.534.583a1.78 1.78 0 0 1 1.471 1.05 3.093 3.093 0 0 0-.677 1.48h-3.341a.996.996 0 0 0-.921.619 4.434 4.434 0 0 0-2.509-.77c-.569 0-1.126.107-1.657.318a.697.697 0 0 0-.239.158.692.692 0 0 0-.158.24c-.135.34-.225.69-.273 1.041a1.787 1.787 0 0 1 .596-2.795.586.586 0 0 0 .306-.729Zm1.747 5.294.159.16h-1.407a3.317 3.317 0 0 1-.107-2.35 3.29 3.29 0 0 1 1.033-.166 3.279 3.279 0 0 1 2.571 1.233c.1.449.252.879.449 1.283h-.883l-.986-.988a.585.585 0 1 0-.829.828Zm-2.496.16h-2.089a1.933 1.933 0 0 1 .909-1.337c.28.376.647.68 1.068.886.03.152.067.303.112.451Zm-5.913-18.649h4.374v2.425h-4.374v-2.425Zm3.564 3.597v1.226h-2.754v-1.226h2.754Zm-5.467 6.368h3.805a.586.586 0 0 0 0-1.172h-3.805v-1.205c0-.878.713-1.593 1.589-1.593h5.002c.876 0 1.589.715 1.589 1.593v1.205h-1.094a.586.586 0 0 0 0 1.172h1.094v.52a2.954 2.954 0 0 0-.848 2.616l.001.006a2.962 2.962 0 0 0-1.199 3.141c-.292.162-.555.37-.781.614h-5.353v-6.897Zm0 8.069h4.673a3.123 3.123 0 0 0-.128.615h-.098a.979.979 0 0 0-.978.979c0 .93.086 1.844.254 2.737a6.73 6.73 0 0 0-.517-.02c-.709 0-1.384.112-1.901.316-.791.313-1.01.756-1.057 1.063a7.311 7.311 0 0 0-.248.131v-5.821Zm7.42 7.198c.211.169.34.312.414.416h-.021c-.332 0-.928-.134-1.606-.509a4.328 4.328 0 0 1-.672-.456.584.584 0 0 0-.757 0c-.188.159-.42.317-.672.456-.678.375-1.274.509-1.605.509h-.022c.074-.104.203-.247.414-.416a.586.586 0 0 0-.297-1.04c-.572-.067-.934-.212-1.103-.318.212-.132.748-.358 1.713-.358.799 0 1.384.169 1.664.326.178.1.395.1.573 0 .281-.157.865-.325 1.664-.325.965 0 1.501.225 1.713.357-.169.106-.53.251-1.102.318a.587.587 0 0 0-.298 1.04Zm-1.173 7.132.021.108c.069.376.216.722.422 1.022h-3.486c-2.813 0-5.102-2.083-5.102-4.644 0-1.749 1.069-3.276 2.644-4.067.181.135.406.251.674.345-.106.181-.18.376-.198.579a.957.957 0 0 0 .233.723c.229.259.581.39 1.046.39.619 0 1.431-.245 2.172-.656a5.67 5.67 0 0 0 .484-.298c.151.104.312.204.483.298.741.411 1.553.656 2.173.656.464 0 .816-.131 1.045-.39a.957.957 0 0 0 .233-.723 1.398 1.398 0 0 0-.198-.579c.268-.094.493-.21.674-.345 1.249.628 2.18 1.717 2.511 3.015l-4.144 1.574a2.68 2.68 0 0 0-1.687 2.992Zm21.575.579a1.515 1.515 0 0 1-1.167.544l-.615.001-.384-2.075a.586.586 0 1 0-1.152.213l.345 1.862-2.016.001-.26-1.403a.587.587 0 0 0-1.152.213l.22 1.19-4.69.002-.353-1.905a.585.585 0 1 0-1.152.213l.314 1.692-6.848.003c-.732 0-1.36-.519-1.492-1.236l-.021-.108a1.51 1.51 0 0 1 .951-1.683l2.303-.875.172.926a.585.585 0 1 0 1.152-.213l-.21-1.136 3.418-1.298a.587.587 0 0 0-.416-1.096l-1.591.605c-.446-1.58-1.593-2.9-3.113-3.656-.048-.307-.266-.75-1.057-1.063-.517-.204-1.192-.316-1.901-.316-.488 0-.953.053-1.364.151v-.354a.586.586 0 0 0-.948-.46 13.5 13.5 0 0 1-.153-1.861h19.085a.586.586 0 0 0 0-1.172h-.24c.373-.768.584-1.63.584-2.541a.998.998 0 0 0-.9-.991 1.546 1.546 0 0 1 1.069-.423 1.548 1.548 0 0 1 1.551 1.552c0 .303.232.556.535.583.7.061 1.273.588 1.393 1.28.032.184.028.366-.004.54h-.629a.586.586 0 1 0 0 1.172h4.554a13.479 13.479 0 0 1-.411 3.143l-3.175 1.875a2.691 2.691 0 0 0-3.542-1.765l-6.54 2.484a.586.586 0 1 0 .416 1.096l.862-.327.267 1.444a.586.586 0 0 0 1.152-.213l-.306-1.654 4.565-1.734a1.522 1.522 0 0 1 1.286.094c.393.22.666.6.748 1.042l1.185 6.399a1.5 1.5 0 0 1-.325 1.238Zm2.091-4.587a.586.586 0 0 0-.026 1.148l4.363 1-.109.732-5.057-.909-.791-4.269 4.405-2.6.367.65-3.716 2.484a.586.586 0 0 0 .432 1.063l5.836-1.072.13.701-5.834 1.072ZM546.894 641.583a.604.604 0 1 0 0-1.209.604.604 0 0 0 0 1.209ZM557.236 639.084a1.896 1.896 0 0 0-1.895 1.894c0 1.045.85 1.895 1.895 1.895s1.895-.85 1.895-1.895-.85-1.894-1.895-1.894Zm0 2.579a.685.685 0 1 1 0-1.37.685.685 0 0 1 0 1.37Z" fill="#333"/><path d="M561.599 634.647h-6.8a5.426 5.426 0 0 0 1.219-4.959l-1.556-6.072a.605.605 0 1 0-1.172.3l1.556 6.072a4.21 4.21 0 0 1-1.788 4.57l-3.222-4.036a3.3 3.3 0 0 0-2.591-1.247h-8.49a3.3 3.3 0 0 0-2.591 1.247l-3.222 4.036a4.21 4.21 0 0 1-1.788-4.57l1.975-7.708a3.925 3.925 0 0 1 2.426-2.701l1.661-.621a1.052 1.052 0 0 1 1.111.242l1.656 1.655c.418.419.974.649 1.566.649h2.902c.592 0 1.148-.23 1.566-.649l1.656-1.655c.29-.291.727-.386 1.112-.242l1.66.621a3.901 3.901 0 0 1 2.19 2.035.606.606 0 0 0 1.098-.506 5.096 5.096 0 0 0-2.864-2.661l-1.661-.621a2.263 2.263 0 0 0-2.188.342h-8.039a2.265 2.265 0 0 0-2.189-.342l-1.66.621a5.133 5.133 0 0 0-3.174 3.532l-1.975 7.709a5.423 5.423 0 0 0 1.219 4.959h-6.801c-.773 0-1.401.628-1.401 1.401v9.861c0 .772.628 1.401 1.401 1.401h2.455v.402a.605.605 0 0 0 1.209 0v-.402h29.87v.402a.604.604 0 1 0 1.209 0v-.402h2.455c.773 0 1.401-.629 1.401-1.401v-9.861c0-.773-.628-1.401-1.401-1.401Zm-15.813-15.27-.624.623a.998.998 0 0 1-.711.295h-2.902a1 1 0 0 1-.711-.295l-.624-.623h5.572Zm15.813 26.723h-37.198a.192.192 0 0 1-.192-.191v-5.414h19.228v.967h-17.239a.605.605 0 0 0 0 1.209h17.327c.618 0 1.121-.503 1.121-1.121v-1.144c0-.618-.503-1.121-1.121-1.121h-19.316v-3.237c0-.106.086-.192.192-.192h8.59l.019.001.021-.001h2.787a.605.605 0 0 0 0-1.209h-1.4l2.691-3.37a2.094 2.094 0 0 1 1.646-.792h8.49c.644 0 1.244.288 1.646.792l2.691 3.37h-13.124a.605.605 0 1 0 0 1.209h14.511l.021.001.019-.001h8.59c.106 0 .192.086.192.192v9.861a.192.192 0 0 1-.192.191Z" fill="#333"/><path d="M536.709 619.987a2.047 2.047 0 0 0-2.045 2.045c0 1.127.917 2.045 2.045 2.045a2.048 2.048 0 0 0 2.045-2.045 2.047 2.047 0 0 0-2.045-2.045Zm0 2.88a.837.837 0 0 1 0-1.671.836.836 0 0 1 0 1.671ZM546.654 623.967a2.047 2.047 0 0 0-2.045 2.045c0 1.128.917 2.045 2.045 2.045a2.047 2.047 0 0 0 2.045-2.045 2.048 2.048 0 0 0-2.045-2.045Zm0 2.881a.837.837 0 0 1 0-1.672.836.836 0 0 1 0 1.672ZM549.565 621.361a.605.605 0 1 0 0-1.21.605.605 0 0 0 0 1.21ZM549.565 624.572a.605.605 0 1 0 0-1.21.605.605 0 0 0 0 1.21ZM547.838 622.991a.604.604 0 1 0 .001-1.209.604.604 0 0 0-.001 1.209ZM551.291 622.991a.604.604 0 1 0 .001-1.209.604.604 0 0 0-.001 1.209ZM541.338 625.407h-.835v-.835a.605.605 0 0 0-1.21 0v.835h-.835a.605.605 0 0 0 0 1.21h.835v.835a.605.605 0 0 0 1.21 0v-.835h.835a.605.605 0 0 0 0-1.21Z" fill="#333"/><g clip-path="url('#clip4_22_323')"><mask id="mask2_22_323" style="mask-type:luminance" maskUnits="userSpaceOnUse" x="656" y="169" width="40" height="40"><path d="M656 169h40v40h-40v-40Z" fill="#fff"/></mask><g mask="url('#mask2_22_323')" stroke="#333" stroke-miterlimit="10" stroke-linecap="round" stroke-linejoin="round"><path d="M678.547 179.237c-.183.15-.417.241-.672.241a2 2 0 0 1-.419-.045v4.034c0 .053-.002.105-.004.158 1.369.077 2.618-.935 2.618-2.165 0-.955-.619-1.925-1.523-2.223Z"/><path d="M675.847 177.45c0-.109-.146-.146-.197-.051a3.925 3.925 0 0 1-3.465 2.079h-6.013v3.988c0 2.907 2.278 5.562 5.723 5.562a5.568 5.568 0 0 0 5.561-5.562v-4.032a2.036 2.036 0 0 1-1.609-1.984Z"/><path d="M666.172 183.467v-3.989h-.695c-.211 0-.413-.041-.598-.113-.751.366-1.32 1.228-1.32 2.095 0 1.228 1.246 2.243 2.617 2.165a4.218 4.218 0 0 1-.004-.158ZM678.585 206.118a1.048 1.048 0 0 1-1.034-1.034v-3.415c0-.561.473-1.035 1.034-1.035a1.047 1.047 0 0 1-1.034-1.034v-3.415c0-.561.473-1.035 1.034-1.035a1.047 1.047 0 0 1-1.034-1.034v-2.754l-2.224-.862a.564.564 0 0 1-.361-.524l-.001-1.876a5.522 5.522 0 0 1-3.07.928c-1.219 0-2.291-.334-3.169-.892v1.836c0 .432-.385.536-.549.6l-7.688 2.98c-1.304.537-3.05 2.225-3.05 4.731v9.115c0 .561.455 1.016 1.017 1.016h26.784c.562 0 1.017-.455 1.017-1.016v-1.28h-7.672Z"/><path d="M673.092 193.726a.396.396 0 0 1-.125-.339h-2.225a.393.393 0 0 1-.125.339l-.112.103v3.841c0 .313.253.566.565.566h1.569a.565.565 0 0 0 .565-.566v-3.841l-.112-.103Z"/><path d="m677.551 191.362-2.085-.808-2.398 2.612a.397.397 0 0 0 .024.56l1.404 1.29a.397.397 0 0 0 .56-.024l2.495-2.717v-.913ZM665.535 191.596l3.118 3.396a.397.397 0 0 0 .56.024l1.404-1.29a.396.396 0 0 0 .024-.56l-2.403-2.617a2.973 2.973 0 0 0-.061.023l-2.642 1.024ZM661.695 208.334v-9.347M693.526 200.634h-14.941c-.561 0-1.034.474-1.034 1.035v3.415c0 .561.473 1.034 1.034 1.034h14.941c.561 0 1.035-.473 1.035-1.034v-3.415c0-.561-.474-1.035-1.035-1.035ZM685.083 203.376h-4.999M685.083 197.892h-4.999M692.02 197.892h-1.058"/><path d="M693.526 195.15h-14.941c-.561 0-1.034.474-1.034 1.035v3.415c0 .561.473 1.034 1.034 1.034h14.941c.561 0 1.035-.473 1.035-1.034v-3.415c0-.561-.474-1.035-1.035-1.035ZM685.083 197.892h-4.999M692.02 197.892h-1.058M685.083 192.408h-4.999M692.02 192.408h-1.058M685.083 192.408h-4.999M692.02 192.408h-1.058M692.02 203.376h-1.058M688.901 197.892h-1.058M688.901 197.892h-1.058M688.901 192.408h-1.058M688.901 192.408h-1.058M688.901 203.376h-1.058M689.897 206.118v1.336c0 .528.432.96.96.96h1.256c.528 0 .96-.432.96-.96v-1.336h-3.176ZM679.039 206.118v1.336c0 .528.432.96.96.96h1.256c.528 0 .96-.432.96-.96v-1.336h-3.176ZM684.89 189.666h-6.305c-.561 0-1.034.474-1.034 1.035v3.415c0 .561.473 1.034 1.034 1.034h14.941c.561 0 1.035-.473 1.035-1.034v-3.415c0-.561-.474-1.035-1.035-1.035h-5.902M678.938 174.532v-.615c0-1.06-.924-1.83-1.843-1.76-.532.041-1.019-.293-1.121-.816-.173-.881-.609-1.755-2.312-1.755h-5.911a3.928 3.928 0 0 0-3.928 3.928v4.31c0 .914.741 1.654 1.654 1.654h6.708a3.926 3.926 0 0 0 3.465-2.078c.051-.096.197-.059.197.05 0 1.115.913 2.028 2.028 2.028.585 0 1.063-.478 1.063-1.063v-1.149"/></g></g><mask id="mask3_22_323" style="mask-type:luminance" maskUnits="userSpaceOnUse" x="523" y="22" width="40" height="40"><path d="M523 22h40v40h-40V22Z" fill="#fff"/></mask><g mask="url('#mask3_22_323')" stroke="#333" stroke-miterlimit="10" stroke-linecap="round" stroke-linejoin="round"><path d="M541.171 57.911h17.463c.961 0 1.739-.779 1.739-1.74V49.43M539.321 22.586h-4.741a1.74 1.74 0 0 0-1.74 1.74V35.84M560.373 46.759V24.325c0-.96-.778-1.74-1.739-1.74h-16.643"/><path d="M557 32.546h-20.786v-5.759H557v5.76ZM542.105 36.86c.193-.333.554-.557.968-.557h1.45a1.12 1.12 0 1 1 0 2.238h-.982M550.141 38.541h-1.45a1.12 1.12 0 1 1 0-2.238h1.45a1.12 1.12 0 1 1 0 2.238ZM555.759 38.541h-1.45a1.12 1.12 0 1 1 0-2.238h1.45a1.12 1.12 0 1 1 0 2.238ZM543.385 42h1.138a1.12 1.12 0 1 1 0 2.239h-1.45a1.12 1.12 0 0 1-1.12-1.12M550.141 44.239h-1.45a1.12 1.12 0 1 1 0-2.239h1.45a1.12 1.12 0 1 1 0 2.239ZM555.759 44.239h-1.45a1.12 1.12 0 1 1 0-2.239h1.45a1.12 1.12 0 1 1 0 2.239ZM541.953 47.698c0-.618.501-1.12 1.12-1.12h1.45a1.12 1.12 0 1 1 0 2.239h-1.294M550.141 48.817h-1.45a1.12 1.12 0 1 1 0-2.239h1.45a1.12 1.12 0 1 1 0 2.239ZM555.759 48.817h-1.45a1.12 1.12 0 1 1 0-2.239h1.45a1.12 1.12 0 1 1 0 2.239ZM543.541 51.157h.982a1.12 1.12 0 1 1 0 2.238h-1.294M550.141 53.395h-1.45a1.12 1.12 0 1 1 0-2.238h1.45a1.12 1.12 0 1 1 0 2.238ZM555.759 53.395h-1.45a1.12 1.12 0 1 1 0-2.238h1.45a1.12 1.12 0 1 1 0 2.238ZM525.627 55.603v3.271c0 1.235 2.697 2.264 6.272 2.493M534.569 61.385c3.738-.184 6.602-1.238 6.602-2.51v-3.272"/><path d="M540.705 54.734c.302.271.466.564.466.869 0 1.402-3.479 2.54-7.772 2.54s-7.772-1.138-7.772-2.54c0-.757 1.011-1.436 2.617-1.9"/><path d="M527.835 49.443v3.271c0 1.403 3.48 2.54 7.773 2.54 4.292 0 7.772-1.137 7.772-2.54v-3.271"/><path d="M540.733 47.533c1.623.466 2.647 1.149 2.647 1.91 0 1.402-3.48 2.54-7.772 2.54-4.293 0-7.773-1.138-7.773-2.54 0-.31.17-.606.48-.88"/><path d="M525.627 43.283v3.271c0 1.403 3.479 2.54 7.772 2.54s7.772-1.137 7.772-2.54v-3.012"/><path d="M541.131 43.542c-.398 1.281-3.708 2.28-7.732 2.28-4.293 0-7.772-1.137-7.772-2.54 0-.651.751-1.245 1.986-1.695"/><path d="M527.835 38.38v3.272c0 1.403 3.48 2.54 7.773 2.54 4.292 0 7.772-1.137 7.772-2.54V38.38"/><path d="M543.38 38.38c0 1.403-3.48 2.54-7.772 2.54-4.293 0-7.773-1.137-7.773-2.54 0-1.402 3.48-2.54 7.773-2.54 4.292 0 7.772 1.138 7.772 2.54ZM528.376 34.154h1.981M528.376 32.339h1.981M530.361 30.324h-.008"/></g><g clip-path="url('#clip5_22_323')"><mask id="mask4_22_323" style="mask-type:luminance" maskUnits="userSpaceOnUse" x="186" y="22" width="40" height="40"><path d="M186 22h40v40h-40V22Z" fill="#fff"/></mask><g mask="url('#mask4_22_323')" stroke="#333" stroke-miterlimit="10" stroke-linecap="round" stroke-linejoin="round"><path d="M198.817 59.831c6.93 2.788 15.157 1.374 20.773-4.241 6.837-6.838 7.446-17.546 1.825-25.072M196 58.417l.03.019"/><path d="M224.568 30.281h-3.412v3.412M213.295 24.214c-6.954-2.848-15.239-1.45-20.885 4.196-6.837 6.838-7.446 17.546-1.825 25.072M216.104 25.646l-.039-.024"/><path d="M187.465 53.823h3.483V50.34M204.123 42a1.877 1.877 0 1 0 3.754-.001 1.877 1.877 0 0 0-3.754.001Z"/><path d="M194.523 35.005c-3.159 5.173-2.501 12.021 1.975 16.497 5.248 5.247 13.756 5.247 19.004 0 5.247-5.248 5.247-13.756 0-19.004-4.473-4.473-11.315-5.133-16.487-1.981M196.478 32.519l-.021.02M216.451 42.013h-.473M195.549 41.987h.473M206.012 31.55v.472M205.988 52.45v-.472M204.673 40.673l-3.063-3.063M207.327 40.673l5.71-5.71"/></g></g><defs><linearGradient id="paint1_linear_22_323" x1="291.132" y1="253.496" x2="458.635" y2="421" gradientUnits="userSpaceOnUse"><stop stop-color="#F5F5F5"/><stop offset="1" stop-color="#fff"/></linearGradient><linearGradient id="paint2_linear_22_323" x1="374.076" y1="336.634" x2="591.781" y2="336.634" gradientUnits="userSpaceOnUse"><stop stop-color="#fff"/><stop offset="1" stop-color="#F5F5F5"/></linearGradient><linearGradient id="paint3_linear_22_323" x1="374.075" y1="336.634" x2="156.37" y2="336.634" gradientUnits="userSpaceOnUse"><stop stop-color="#fff"/><stop offset="1" stop-color="#F5F5F5"/></linearGradient><linearGradient id="paint4_linear_22_323" x1="nan" y1="nan" x2="nan" y2="nan" gradientUnits="userSpaceOnUse"><stop stop-color="#fff"/><stop offset="1" stop-color="#F5F5F5"/></linearGradient><linearGradient id="paint5_linear_22_323" x1="568.383" y1="458.832" x2="676.59" y2="458.832" gradientUnits="userSpaceOnUse"><stop stop-color="#fff"/><stop offset="1" stop-color="#F5F5F5"/></linearGradient><linearGradient id="paint6_linear_22_323" x1="505.698" y1="570.63" x2="544.368" y2="570.63" gradientUnits="userSpaceOnUse"><stop stop-color="#fff"/><stop offset="1" stop-color="#F5F5F5"/></linearGradient><linearGradient id="paint7_linear_22_323" x1="497.855" y1="500.528" x2="512.963" y2="515.595" gradientUnits="userSpaceOnUse"><stop stop-color="#E991FC"/><stop offset="1" stop-color="#7533D8"/></linearGradient><linearGradient id="paint8_linear_22_323" x1="492.897" y1="496.957" x2="516.496" y2="519.776" gradientUnits="userSpaceOnUse"><stop stop-color="#FFDF00"/><stop offset="1" stop-color="#FFB800"/></linearGradient><linearGradient id="paint9_linear_22_323" x1="560.842" y1="424.47" x2="575.932" y2="439.535" gradientUnits="userSpaceOnUse"><stop stop-color="#E991FC"/><stop offset="1" stop-color="#7533D8"/></linearGradient><linearGradient id="paint10_linear_22_323" x1="555.897" y1="420.957" x2="579.496" y2="443.776" gradientUnits="userSpaceOnUse"><stop stop-color="#FFDF00"/><stop offset="1" stop-color="#FFB800"/></linearGradient><linearGradient id="paint11_linear_22_323" x1="582.889" y1="328.602" x2="597.955" y2="343.668" gradientUnits="userSpaceOnUse"><stop stop-color="#E991FC"/><stop offset="1" stop-color="#7533D8"/></linearGradient><linearGradient id="paint12_linear_22_323" x1="577.897" y1="324.957" x2="601.496" y2="347.776" gradientUnits="userSpaceOnUse"><stop stop-color="#FFDF00"/><stop offset="1" stop-color="#FFB800"/></linearGradient><linearGradient id="paint13_linear_22_323" x1="559.91" y1="233.566" x2="574.995" y2="248.669" gradientUnits="userSpaceOnUse"><stop stop-color="#E991FC"/><stop offset="1" stop-color="#7533D8"/></linearGradient><linearGradient id="paint14_linear_22_323" x1="554.897" y1="229.957" x2="578.496" y2="252.776" gradientUnits="userSpaceOnUse"><stop stop-color="#FFDF00"/><stop offset="1" stop-color="#FFB800"/></linearGradient><linearGradient id="paint15_linear_22_323" x1="647.746" y1="160.417" x2="704.199" y2="216.87" gradientUnits="userSpaceOnUse"><stop stop-color="#E991FC"/><stop offset="1" stop-color="#7533D8"/></linearGradient><linearGradient id="paint16_linear_22_323" x1="627.588" y1="145.923" x2="721.984" y2="237.202" gradientUnits="userSpaceOnUse"><stop stop-color="#FFDF00"/><stop offset="1" stop-color="#FFB800"/></linearGradient><linearGradient id="paint17_linear_22_323" x1="680.746" y1="308.408" x2="737.199" y2="364.861" gradientUnits="userSpaceOnUse"><stop stop-color="#E991FC"/><stop offset="1" stop-color="#7533D8"/></linearGradient><linearGradient id="paint18_linear_22_323" x1="660.588" y1="293.923" x2="754.984" y2="385.202" gradientUnits="userSpaceOnUse"><stop stop-color="#FFDF00"/><stop offset="1" stop-color="#FFB800"/></linearGradient><linearGradient id="paint19_linear_22_323" x1="647.746" y1="456.399" x2="704.199" y2="512.852" gradientUnits="userSpaceOnUse"><stop stop-color="#E991FC"/><stop offset="1" stop-color="#7533D8"/></linearGradient><linearGradient id="paint20_linear_22_323" x1="627.588" y1="441.923" x2="721.984" y2="533.202" gradientUnits="userSpaceOnUse"><stop stop-color="#FFDF00"/><stop offset="1" stop-color="#FFB800"/></linearGradient><linearGradient id="paint21_linear_22_323" x1="494.588" y1="588.923" x2="588.984" y2="680.202" gradientUnits="userSpaceOnUse"><stop stop-color="#FFDF00"/><stop offset="1" stop-color="#FFB800"/></linearGradient><linearGradient id="paint22_linear_22_323" x1="505.517" y1="103.797" x2="544.368" y2="103.797" gradientUnits="userSpaceOnUse"><stop stop-color="#fff"/><stop offset="1" stop-color="#F5F5F5"/></linearGradient><linearGradient id="paint23_linear_22_323" x1="497.849" y1="157.486" x2="512.999" y2="172.594" gradientUnits="userSpaceOnUse"><stop stop-color="#E991FC"/><stop offset="1" stop-color="#7533D8"/></linearGradient><linearGradient id="paint24_linear_22_323" x1="492.897" y1="153.957" x2="516.496" y2="176.776" gradientUnits="userSpaceOnUse"><stop stop-color="#FFDF00"/><stop offset="1" stop-color="#FFB800"/></linearGradient><linearGradient id="paint25_linear_22_323" x1="514.746" y1="13.426" x2="571.199" y2="69.878" gradientUnits="userSpaceOnUse"><stop stop-color="#E991FC"/><stop offset="1" stop-color="#7533D8"/></linearGradient><linearGradient id="paint26_linear_22_323" x1="494.588" y1="-1.077" x2="588.984" y2="90.202" gradientUnits="userSpaceOnUse"><stop stop-color="#FFDF00"/><stop offset="1" stop-color="#FFB800"/></linearGradient><linearGradient id="paint27_linear_22_323" x1="nan" y1="nan" x2="nan" y2="nan" gradientUnits="userSpaceOnUse"><stop stop-color="#fff"/><stop offset="1" stop-color="#F5F5F5"/></linearGradient><linearGradient id="paint28_linear_22_323" x1="180.982" y1="458.833" x2="72.775" y2="458.833" gradientUnits="userSpaceOnUse"><stop stop-color="#fff"/><stop offset="1" stop-color="#F5F5F5"/></linearGradient><linearGradient id="paint29_linear_22_323" x1="180.982" y1="216.158" x2="72.775" y2="216.158" gradientUnits="userSpaceOnUse"><stop stop-color="#fff"/><stop offset="1" stop-color="#F5F5F5"/></linearGradient><linearGradient id="paint30_linear_22_323" x1="243.668" y1="570.63" x2="204.997" y2="570.63" gradientUnits="userSpaceOnUse"><stop stop-color="#fff"/><stop offset="1" stop-color="#F5F5F5"/></linearGradient><linearGradient id="paint31_linear_22_323" x1="234.987" y1="500.527" x2="250.1" y2="515.599" gradientUnits="userSpaceOnUse"><stop stop-color="#FFDB65"/><stop offset="1" stop-color="#FF8C33"/></linearGradient><linearGradient id="paint32_linear_22_323" x1="229.897" y1="496.957" x2="253.496" y2="519.776" gradientUnits="userSpaceOnUse"><stop stop-color="#FFDF00"/><stop offset="1" stop-color="#FFB800"/></linearGradient><linearGradient id="paint33_linear_22_323" x1="172.003" y1="424.47" x2="187.094" y2="439.536" gradientUnits="userSpaceOnUse"><stop stop-color="#FFDB65"/><stop offset="1" stop-color="#FF8C33"/></linearGradient><linearGradient id="paint34_linear_22_323" x1="166.897" y1="420.957" x2="190.496" y2="443.776" gradientUnits="userSpaceOnUse"><stop stop-color="#FFDF00"/><stop offset="1" stop-color="#FFB800"/></linearGradient><linearGradient id="paint35_linear_22_323" x1="147.955" y1="328.602" x2="163.023" y2="343.67" gradientUnits="userSpaceOnUse"><stop stop-color="#FFDB65"/><stop offset="1" stop-color="#FF8C33"/></linearGradient><linearGradient id="paint36_linear_22_323" x1="142.897" y1="324.957" x2="166.496" y2="347.776" gradientUnits="userSpaceOnUse"><stop stop-color="#FFDF00"/><stop offset="1" stop-color="#FFB800"/></linearGradient><linearGradient id="paint37_linear_22_323" x1="171.899" y1="233.565" x2="186.988" y2="248.671" gradientUnits="userSpaceOnUse"><stop stop-color="#FFDB65"/><stop offset="1" stop-color="#FF8C33"/></linearGradient><linearGradient id="paint38_linear_22_323" x1="166.897" y1="229.957" x2="190.496" y2="252.776" gradientUnits="userSpaceOnUse"><stop stop-color="#FFDF00"/><stop offset="1" stop-color="#FFB800"/></linearGradient><linearGradient id="paint39_linear_22_323" x1="44.621" y1="160.417" x2="101.074" y2="216.87" gradientUnits="userSpaceOnUse"><stop stop-color="#FFDB65"/><stop offset="1" stop-color="#FF8C33"/></linearGradient><linearGradient id="paint40_linear_22_323" x1="24.588" y1="145.923" x2="118.984" y2="237.202" gradientUnits="userSpaceOnUse"><stop stop-color="#FFDF00"/><stop offset="1" stop-color="#FFB800"/></linearGradient><linearGradient id="paint41_linear_22_323" x1="11.621" y1="308.409" x2="68.074" y2="364.861" gradientUnits="userSpaceOnUse"><stop stop-color="#FFDB65"/><stop offset="1" stop-color="#FF8C33"/></linearGradient><linearGradient id="paint42_linear_22_323" x1="-8.412" y1="293.923" x2="85.984" y2="385.202" gradientUnits="userSpaceOnUse"><stop stop-color="#FFDF00"/><stop offset="1" stop-color="#FFB800"/></linearGradient><linearGradient id="paint43_linear_22_323" x1="44.621" y1="456.4" x2="101.074" y2="512.853" gradientUnits="userSpaceOnUse"><stop stop-color="#FFDB65"/><stop offset="1" stop-color="#FF8C33"/></linearGradient><linearGradient id="paint44_linear_22_323" x1="24.588" y1="441.923" x2="118.984" y2="533.202" gradientUnits="userSpaceOnUse"><stop stop-color="#FFDF00"/><stop offset="1" stop-color="#FFB800"/></linearGradient><linearGradient id="paint45_linear_22_323" x1="176.621" y1="603.391" x2="233.074" y2="659.844" gradientUnits="userSpaceOnUse"><stop stop-color="#FFDB65"/><stop offset="1" stop-color="#FF8C33"/></linearGradient><linearGradient id="paint46_linear_22_323" x1="156.588" y1="588.923" x2="250.984" y2="680.202" gradientUnits="userSpaceOnUse"><stop stop-color="#FFDF00"/><stop offset="1" stop-color="#FFB800"/></linearGradient><linearGradient id="paint47_linear_22_323" x1="243.848" y1="103.798" x2="204.997" y2="103.798" gradientUnits="userSpaceOnUse"><stop stop-color="#fff"/><stop offset="1" stop-color="#F5F5F5"/></linearGradient><linearGradient id="paint48_linear_22_323" x1="234.959" y1="157.49" x2="250.102" y2="172.591" gradientUnits="userSpaceOnUse"><stop stop-color="#FFDB65"/><stop offset="1" stop-color="#FF8C33"/></linearGradient><linearGradient id="paint49_linear_22_323" x1="229.897" y1="153.957" x2="253.496" y2="176.776" gradientUnits="userSpaceOnUse"><stop stop-color="#FFDF00"/><stop offset="1" stop-color="#FFB800"/></linearGradient><linearGradient id="paint50_linear_22_323" x1="157.588" y1="-1.077" x2="251.984" y2="90.202" gradientUnits="userSpaceOnUse"><stop stop-color="#FFDF00"/><stop offset="1" stop-color="#FFB800"/></linearGradient><clipPath id="clip0_22_323"><path fill="#fff" transform="translate(53 169)" d="M0 0h40v40H0z"/></clipPath><clipPath id="clip1_22_323"><path fill="#fff" transform="translate(53 465)" d="M0 0h40v40H0z"/></clipPath><clipPath id="clip2_22_323"><path fill="#fff" transform="translate(185 612)" d="M0 0h40v40H0z"/></clipPath><clipPath id="clip3_22_323"><path fill="#fff" transform="translate(656 465)" d="M0 0h40v40H0z"/></clipPath><clipPath id="clip4_22_323"><path fill="#fff" transform="translate(656 169)" d="M0 0h40v40H0z"/></clipPath><clipPath id="clip5_22_323"><path fill="#fff" transform="translate(186 22)" d="M0 0h40v40H0z"/></clipPath><radialGradient id="paint0_radial_22_323" cx="0" cy="0" r="1" gradientUnits="userSpaceOnUse" gradientTransform="rotate(90 19 356) scale(188)"><stop stop-color="#FFD201" stop-opacity=".41"/><stop offset="1" stop-color="#FFD201" stop-opacity="0"/></radialGradient></defs></svg>