<svg width="750" height="673" viewBox="0 0 750 673" fill="none" xmlns="http://www.w3.org/2000/svg">
<circle cx="375" cy="337" r="188" fill="url(#paint0_radial_22_323)"/>
<path d="M374.966 455.641C440.352 455.641 493.359 402.635 493.359 337.248C493.359 271.861 440.352 218.855 374.966 218.855C309.579 218.855 256.572 271.861 256.572 337.248C256.572 402.635 309.579 455.641 374.966 455.641Z" fill="url(#paint1_linear_22_323)"/>
<path d="M374 120.635C493.19 120.635 590 217.611 590 336.635C590 455.658 493.024 552.635 374 552.635" stroke="url(#paint2_linear_22_323)" stroke-width="3.31634" stroke-miterlimit="10"/>
<path d="M374 120.635C254.81 120.635 158 217.611 158 336.635C158 455.658 254.976 552.635 374 552.635" stroke="url(#paint3_linear_22_323)" stroke-width="3.31634" stroke-miterlimit="10"/>
<g opacity="0.1">
<path d="M636.127 189.505C636.127 167.451 654.035 149.377 676.255 149.377C698.309 149.377 716.383 167.286 716.383 189.505C716.383 211.559 698.474 229.633 676.255 229.633C654.035 229.633 636.127 211.559 636.127 189.505Z" fill="black"/>
</g>
<g opacity="0.1">
<path d="M669.291 337.248C669.291 315.194 687.199 297.12 709.418 297.12C731.472 297.12 749.546 315.028 749.546 337.248C749.546 359.301 731.638 377.376 709.418 377.376C687.199 377.376 669.291 359.301 669.291 337.248Z" fill="black"/>
</g>
<g opacity="0.1">
<path d="M636.127 484.991C636.127 462.937 654.035 444.863 676.255 444.863C698.309 444.863 716.383 462.771 716.383 484.991C716.383 507.044 698.474 525.118 676.255 525.118C654.035 524.953 636.127 507.044 636.127 484.991Z" fill="black"/>
</g>
<g opacity="0.1">
<path d="M503.474 632.734C503.474 610.68 521.382 592.606 543.601 592.606C565.655 592.606 583.729 610.514 583.729 632.734C583.729 654.953 565.821 672.861 543.601 672.861C521.382 672.696 503.474 654.787 503.474 632.734Z" fill="black"/>
</g>
<g opacity="0.1">
<path d="M503.474 41.7622C503.474 19.7086 521.382 1.63452 543.601 1.63452C565.655 1.63452 583.729 19.5427 583.729 41.7622C583.729 63.8158 565.821 81.8899 543.601 81.8899C521.382 81.8899 503.474 63.8158 503.474 41.7622Z" fill="black"/>
</g>
<path d="M591.025 337.248H709.418" stroke="url(#paint4_linear_22_323)" stroke-width="1.65817" stroke-miterlimit="10"/>
<path d="M568.806 432.758L676.255 484.991" stroke="url(#paint5_linear_22_323)" stroke-width="1.65817" stroke-miterlimit="10"/>
<path d="M506.458 508.537L543.601 632.733" stroke="url(#paint6_linear_22_323)" stroke-width="1.65817" stroke-miterlimit="10"/>
<g opacity="0.3">
<path d="M497.054 513.778C493.67 509.459 494.593 503.134 498.9 499.741C503.208 496.347 509.515 497.118 512.899 501.592C516.284 505.911 515.515 512.236 511.053 515.629C509.207 517.018 507.054 517.635 504.9 517.635C501.977 517.635 498.9 516.246 497.054 513.778Z" fill="url(#paint7_linear_22_323)"/>
<path d="M497.054 513.778C493.67 509.459 494.593 503.134 498.9 499.741C503.208 496.347 509.515 497.118 512.899 501.592C516.284 505.911 515.515 512.236 511.053 515.629C509.207 517.018 507.054 517.635 504.9 517.635C501.977 517.635 498.9 516.246 497.054 513.778Z" fill="url(#paint8_linear_22_323)"/>
</g>
<g opacity="0.3">
<path d="M563.512 440.556C558.592 438.092 556.593 432.085 559.053 427.156C561.513 422.227 567.511 420.225 572.431 422.689C577.352 425.154 579.351 431.161 577.045 436.09C575.353 439.632 571.816 441.635 568.126 441.635C566.434 441.635 564.896 441.172 563.512 440.556Z" fill="url(#paint9_linear_22_323)"/>
<path d="M563.512 440.556C558.592 438.092 556.593 432.085 559.053 427.156C561.513 422.227 567.511 420.225 572.431 422.689C577.352 425.154 579.351 431.161 577.045 436.09C575.353 439.632 571.816 441.635 568.126 441.635C566.434 441.635 564.896 441.172 563.512 440.556Z" fill="url(#paint10_linear_22_323)"/>
</g>
<g opacity="0.3">
<path d="M580 335.635C580 330.096 584.462 325.635 590 325.635C595.538 325.635 600 330.096 600 335.635C600 341.173 595.538 345.635 590 345.635C584.462 345.635 580 341.173 580 335.635Z" fill="url(#paint11_linear_22_323)"/>
<path d="M580 335.635C580 330.096 584.462 325.635 590 325.635C595.538 325.635 600 330.096 600 335.635C600 341.173 595.538 345.635 590 345.635C584.462 345.635 580 341.173 580 335.635Z" fill="url(#paint12_linear_22_323)"/>
</g>
<g opacity="0.3">
<path d="M558.056 245.09C555.589 240.161 557.593 234.154 562.528 231.689C567.463 229.225 573.477 231.227 575.944 236.156C578.411 241.085 576.407 247.092 571.472 249.556C570.084 250.326 568.542 250.635 567 250.635C563.299 250.635 559.752 248.632 558.056 245.09Z" fill="url(#paint13_linear_22_323)"/>
<path d="M558.056 245.09C555.589 240.161 557.593 234.154 562.528 231.689C567.463 229.225 573.477 231.227 575.944 236.156C578.411 241.085 576.407 247.092 571.472 249.556C570.084 250.326 568.542 250.635 567 250.635C563.299 250.635 559.752 248.632 558.056 245.09Z" fill="url(#paint14_linear_22_323)"/>
</g>
<path d="M676 228.635C698.091 228.635 716 210.726 716 188.634C716 166.543 698.091 148.635 676 148.635C653.909 148.635 636 166.543 636 188.634C636 210.726 653.909 228.635 676 228.635Z" fill="url(#paint15_linear_22_323)"/>
<path d="M676 228.635C698.091 228.635 716 210.726 716 188.634C716 166.543 698.091 148.635 676 148.635C653.909 148.635 636 166.543 636 188.634C636 210.726 653.909 228.635 676 228.635Z" fill="url(#paint16_linear_22_323)"/>
<path d="M709 376.635C731.091 376.635 749 358.726 749 336.635C749 314.543 731.091 296.635 709 296.635C686.909 296.635 669 314.543 669 336.635C669 358.726 686.909 376.635 709 376.635Z" fill="url(#paint17_linear_22_323)"/>
<path d="M709 376.635C731.091 376.635 749 358.726 749 336.635C749 314.543 731.091 296.635 709 296.635C686.909 296.635 669 314.543 669 336.635C669 358.726 686.909 376.635 709 376.635Z" fill="url(#paint18_linear_22_323)"/>
<path d="M676 524.635C698.091 524.635 716 506.726 716 484.635C716 462.543 698.091 444.635 676 444.635C653.909 444.635 636 462.543 636 484.635C636 506.726 653.909 524.635 676 524.635Z" fill="url(#paint19_linear_22_323)"/>
<path d="M676 524.635C698.091 524.635 716 506.726 716 484.635C716 462.543 698.091 444.635 676 444.635C653.909 444.635 636 462.543 636 484.635C636 506.726 653.909 524.635 676 524.635Z" fill="url(#paint20_linear_22_323)"/>
<path d="M543 671.635C565.091 671.635 583 653.726 583 631.635C583 609.543 565.091 591.635 543 591.635C520.909 591.635 503 609.543 503 631.635C503 653.726 520.909 671.635 543 671.635Z" fill="url(#paint21_linear_22_323)"/>
<path d="M506.292 165.793L543.601 41.7622" stroke="url(#paint22_linear_22_323)" stroke-width="1.65817" stroke-miterlimit="10"/>
<g opacity="0.3">
<path d="M498.909 172.624C494.592 169.223 493.667 162.884 497.059 158.555C500.451 154.225 506.773 153.298 511.091 156.699C515.408 160.101 516.333 166.44 512.941 170.769C510.936 173.398 508.007 174.635 504.923 174.635C502.764 174.635 500.605 174.016 498.909 172.624Z" fill="url(#paint23_linear_22_323)"/>
<path d="M498.909 172.624C494.592 169.223 493.667 162.884 497.059 158.555C500.451 154.225 506.773 153.298 511.091 156.699C515.408 160.101 516.333 166.44 512.941 170.769C510.936 173.398 508.007 174.635 504.923 174.635C502.764 174.635 500.605 174.016 498.909 172.624Z" fill="url(#paint24_linear_22_323)"/>
</g>
<path d="M543 81.6345C565.091 81.6345 583 63.7259 583 41.6345C583 19.5431 565.091 1.63452 543 1.63452C520.909 1.63452 503 19.5431 503 41.6345C503 63.7259 520.909 81.6345 543 81.6345Z" fill="url(#paint25_linear_22_323)"/>
<path d="M543 81.6345C565.091 81.6345 583 63.7259 583 41.6345C583 19.5431 565.091 1.63452 543 1.63452C520.909 1.63452 503 19.5431 503 41.6345C503 63.7259 520.909 81.6345 543 81.6345Z" fill="url(#paint26_linear_22_323)"/>
<path d="M156.393 337.248H38" stroke="url(#paint27_linear_22_323)" stroke-width="1.65817" stroke-miterlimit="10"/>
<path d="M180.574 432.758L73.1252 484.991" stroke="url(#paint28_linear_22_323)" stroke-width="1.65817" stroke-miterlimit="10"/>
<path d="M180.574 242.232L73.1252 190" stroke="url(#paint29_linear_22_323)" stroke-width="1.65817" stroke-miterlimit="10"/>
<path d="M242.922 508.537L205.779 632.733" stroke="url(#paint30_linear_22_323)" stroke-width="1.65817" stroke-miterlimit="10"/>
<g opacity="0.3">
<path d="M249.946 513.778C253.33 509.459 252.407 503.134 248.1 499.741C243.792 496.347 237.485 497.118 234.101 501.592C230.716 505.911 231.485 512.236 235.947 515.629C237.793 517.018 239.946 517.635 242.1 517.635C245.023 517.635 247.946 516.246 249.946 513.778Z" fill="url(#paint31_linear_22_323)"/>
<path d="M249.946 513.778C253.33 509.459 252.407 503.134 248.1 499.741C243.792 496.347 237.485 497.118 234.101 501.592C230.716 505.911 231.485 512.236 235.947 515.629C237.793 517.018 239.946 517.635 242.1 517.635C245.023 517.635 247.946 516.246 249.946 513.778Z" fill="url(#paint32_linear_22_323)"/>
</g>
<g opacity="0.3">
<path d="M183.488 440.556C188.408 438.092 190.407 432.085 187.947 427.156C185.487 422.227 179.489 420.225 174.569 422.689C169.648 425.154 167.649 431.161 169.955 436.09C171.647 439.632 175.184 441.635 178.874 441.635C180.566 441.635 182.104 441.172 183.488 440.556Z" fill="url(#paint33_linear_22_323)"/>
<path d="M183.488 440.556C188.408 438.092 190.407 432.085 187.947 427.156C185.487 422.227 179.489 420.225 174.569 422.689C169.648 425.154 167.649 431.161 169.955 436.09C171.647 439.632 175.184 441.635 178.874 441.635C180.566 441.635 182.104 441.172 183.488 440.556Z" fill="url(#paint34_linear_22_323)"/>
</g>
<g opacity="0.3">
<path d="M165 335.635C165 330.096 160.538 325.635 155 325.635C149.462 325.635 145 330.096 145 335.635C145 341.173 149.462 345.635 155 345.635C160.538 345.635 165 341.173 165 335.635Z" fill="url(#paint35_linear_22_323)"/>
<path d="M165 335.635C165 330.096 160.538 325.635 155 325.635C149.462 325.635 145 330.096 145 335.635C145 341.173 149.462 345.635 155 345.635C160.538 345.635 165 341.173 165 335.635Z" fill="url(#paint36_linear_22_323)"/>
</g>
<g opacity="0.3">
<path d="M187.944 245.09C190.411 240.161 188.407 234.154 183.472 231.689C178.537 229.225 172.523 231.227 170.056 236.156C167.589 241.085 169.593 247.092 174.528 249.556C175.916 250.326 177.458 250.635 179 250.635C182.701 250.635 186.248 248.632 187.944 245.09Z" fill="url(#paint37_linear_22_323)"/>
<path d="M187.944 245.09C190.411 240.161 188.407 234.154 183.472 231.689C178.537 229.225 172.523 231.227 170.056 236.156C167.589 241.085 169.593 247.092 174.528 249.556C175.916 250.326 177.458 250.635 179 250.635C182.701 250.635 186.248 248.632 187.944 245.09Z" fill="url(#paint38_linear_22_323)"/>
</g>
<g opacity="0.1">
<path d="M165.817 632.734C165.817 610.68 183.725 592.606 205.944 592.606C228.164 592.606 246.072 610.514 246.072 632.734C246.072 654.953 228.164 672.861 205.944 672.861C183.725 672.861 165.817 654.787 165.817 632.734Z" fill="black"/>
</g>
<path d="M33 188.634C33 166.651 50.8512 148.635 73 148.635C95.1487 148.635 113 166.486 113 188.634C113 210.618 95.1487 228.635 73 228.635C50.8512 228.635 33 210.618 33 188.634Z" fill="url(#paint39_linear_22_323)"/>
<path d="M33 188.634C33 166.651 50.8512 148.635 73 148.635C95.1487 148.635 113 166.486 113 188.634C113 210.618 95.1487 228.635 73 228.635C50.8512 228.635 33 210.618 33 188.634Z" fill="url(#paint40_linear_22_323)"/>
<path d="M0 336.635C0 314.651 17.8512 296.635 40 296.635C62.1487 296.635 80 314.486 80 336.635C80 358.618 62.1487 376.635 40 376.635C17.8512 376.635 0 358.618 0 336.635Z" fill="url(#paint41_linear_22_323)"/>
<path d="M0 336.635C0 314.651 17.8512 296.635 40 296.635C62.1487 296.635 80 314.486 80 336.635C80 358.618 62.1487 376.635 40 376.635C17.8512 376.635 0 358.618 0 336.635Z" fill="url(#paint42_linear_22_323)"/>
<path d="M33 484.635C33 462.651 50.8512 444.635 73 444.635C95.1487 444.635 113 462.486 113 484.635C113 506.618 95.1487 524.635 73 524.635C50.8512 524.635 33 506.618 33 484.635Z" fill="url(#paint43_linear_22_323)"/>
<path d="M33 484.635C33 462.651 50.8512 444.635 73 444.635C95.1487 444.635 113 462.486 113 484.635C113 506.618 95.1487 524.635 73 524.635C50.8512 524.635 33 506.618 33 484.635Z" fill="url(#paint44_linear_22_323)"/>
<path d="M165 631.635C165 609.651 182.851 591.635 205 591.635C227.149 591.635 245 609.486 245 631.635C245 653.783 227.149 671.635 205 671.635C182.851 671.635 165 653.618 165 631.635Z" fill="url(#paint45_linear_22_323)"/>
<path d="M165 631.635C165 609.651 182.851 591.635 205 591.635C227.149 591.635 245 609.486 245 631.635C245 653.783 227.149 671.635 205 671.635C182.851 671.635 165 653.618 165 631.635Z" fill="url(#paint46_linear_22_323)"/>
<path d="M243.087 165.793L205.779 41.7622" stroke="url(#paint47_linear_22_323)" stroke-width="1.65817" stroke-miterlimit="10"/>
<g opacity="0.3">
<path d="M248.091 172.624C252.408 169.223 253.333 162.884 249.941 158.555C246.549 154.225 240.227 153.298 235.909 156.699C231.592 160.101 230.667 166.44 234.059 170.769C236.064 173.398 238.993 174.635 242.077 174.635C244.236 174.635 246.395 174.016 248.091 172.624Z" fill="url(#paint48_linear_22_323)"/>
<path d="M248.091 172.624C252.408 169.223 253.333 162.884 249.941 158.555C246.549 154.225 240.227 153.298 235.909 156.699C231.592 160.101 230.667 166.44 234.059 170.769C236.064 173.398 238.993 174.635 242.077 174.635C244.236 174.635 246.395 174.016 248.091 172.624Z" fill="url(#paint49_linear_22_323)"/>
</g>
<g opacity="0.1">
<path d="M165.817 41.7622C165.817 19.7086 183.725 1.63452 205.944 1.63452C228.164 1.63452 246.072 19.5427 246.072 41.7622C246.072 63.8158 228.164 81.8899 205.944 81.8899C183.725 81.8899 165.817 63.8158 165.817 41.7622Z" fill="black"/>
</g>
<path d="M166 41.6345C166 19.651 183.851 1.63452 206 1.63452C228.149 1.63452 246 19.4858 246 41.6345C246 63.618 228.149 81.6345 206 81.6345C183.851 81.6345 166 63.618 166 41.6345Z" fill="url(#paint50_linear_22_323)"/>
<path d="M559 336.469C559 438.492 476.098 521.635 374 521.635V454.889C439.197 454.889 492.149 401.89 492.149 336.635C492.149 271.38 439.197 218.381 374 218.381V151.636C476.098 151.304 559 234.446 559 336.469Z" fill="#FFCD01"/>
<path d="M190 336.469C190 438.492 272.902 521.635 375 521.635V454.889C309.803 454.889 256.851 401.89 256.851 336.635C256.851 271.38 309.803 218.381 375 218.381V151.636C272.902 151.304 190 234.446 190 336.469Z" fill="#FFCD01"/>
<path d="M380.752 269C347.494 280.191 319.439 303.005 308 337C319.308 370.607 347.1 393.676 380.752 405C410.677 381.981 426.995 363.494 439 337C421.769 325.458 414.531 319.516 400.561 301.655C381.843 310.328 365.551 320.435 351.118 336.631C356.298 343.992 364.897 350.862 371.849 356.507C381.981 349.078 389.708 341.84 394.714 335.629C397.852 339.455 401.391 342.001 404.761 344.129C396.055 358.906 386.285 367.019 374.22 374.768C356.098 365.197 341.531 348.629 334.451 334.62C347.721 312.792 368.535 298.053 392.185 289.839C388.353 283.143 383.331 276.908 380.752 269Z" fill="#FFE30B"/>
<g clip-path="url(#clip0_22_323)">
<path d="M68.5981 205.79C68.5981 206.135 68.3241 206.418 67.9791 206.418C67.6341 206.418 67.3513 206.135 67.3513 205.79V197.927C67.3513 197.397 67.5809 196.919 67.9525 196.575C68.3153 196.239 68.8019 196.035 69.3413 196.035H76.655C77.1944 196.035 77.6897 196.238 78.0431 196.575C78.4144 196.92 78.645 197.397 78.645 197.927V205.79C78.645 206.135 78.3706 206.418 78.0256 206.418C77.6806 206.418 77.3978 206.135 77.3978 205.79V197.927C77.3978 197.76 77.3269 197.6 77.2031 197.486C77.0619 197.362 76.8759 197.282 76.655 197.282H73.6213V205.79C73.6213 206.135 73.3475 206.418 73.0025 206.418C72.6578 206.418 72.3747 206.135 72.3747 205.79V197.282H69.3413C69.1291 197.282 68.9431 197.362 68.8019 197.485C68.6781 197.6 68.5984 197.759 68.5984 197.927L68.5981 205.79Z" fill="#333333"/>
<path d="M66.8384 187.651H70.924C71.269 187.651 71.5431 187.926 71.5431 188.27V192.073C71.5431 192.418 71.269 192.692 70.924 192.692H66.8384C66.4934 192.692 66.2194 192.418 66.2194 192.073V188.27C66.219 187.926 66.4934 187.651 66.8384 187.651ZM66.8384 180.09H70.924C71.269 180.09 71.5431 180.364 71.5431 180.709V184.512C71.5431 184.857 71.269 185.131 70.924 185.131H66.8384C66.4934 185.131 66.2194 184.856 66.2194 184.512V180.709C66.219 180.364 66.4934 180.09 66.8384 180.09ZM70.2962 181.337H67.4662V183.884H70.2962V181.337ZM77.1234 183.884C77.4684 183.884 77.7422 184.167 77.7422 184.512C77.7422 184.857 77.4681 185.131 77.1234 185.131H75.0806C74.7356 185.131 74.4525 184.857 74.4525 184.512V180.709C74.4525 180.364 74.7353 180.09 75.0806 180.09C75.4256 180.09 75.6997 180.364 75.6997 180.709V183.884H77.1234ZM75.0806 187.651H79.1575C79.5025 187.651 79.7853 187.926 79.7853 188.27V192.073C79.7853 192.418 79.5025 192.692 79.1575 192.692H75.0806C74.7356 192.692 74.4525 192.418 74.4525 192.073V188.27C74.4525 187.926 74.7356 187.651 75.0806 187.651ZM78.5387 188.898H75.7V191.445H78.5387V188.898ZM70.2962 188.898H67.4662V191.445H70.2962V188.898Z" fill="#333333"/>
<path d="M83.5084 188.156C83.3319 188.448 82.9519 188.553 82.6597 188.377C82.5622 188.315 82.4828 188.235 82.4297 188.147L77.0703 179.064C76.7959 178.595 76.5662 177.994 76.425 177.463C76.2831 176.915 76.2125 176.349 76.2125 175.765C76.2125 173.899 76.9644 172.21 78.1934 170.981C79.4141 169.761 81.1031 169 82.9781 169C84.8441 169 86.5331 169.761 87.7625 170.981C88.9828 172.211 89.7437 173.899 89.7437 175.766C89.7437 176.349 89.6641 176.915 89.5228 177.464C89.3809 178.03 89.1597 178.56 88.8859 179.056L83.5084 188.156ZM82.9781 186.617L87.8066 178.436C88.0278 178.038 88.2047 177.605 88.3197 177.154C88.4344 176.711 88.4962 176.252 88.4962 175.765C88.4962 174.244 87.8778 172.865 86.8781 171.865C85.8787 170.866 84.4991 170.247 82.9781 170.247C81.4481 170.247 80.0684 170.866 79.0694 171.865C78.0784 172.865 77.4597 174.244 77.4597 175.765C77.4597 176.252 77.5212 176.711 77.6278 177.154C77.7425 177.596 77.9194 178.02 78.1316 178.418L82.9781 186.617Z" fill="#333333"/>
<path d="M82.9781 172.157C83.9687 172.157 84.8706 172.564 85.5247 173.218C86.1794 173.864 86.5862 174.766 86.5862 175.765C86.5862 176.764 86.1791 177.667 85.5247 178.321C84.8703 178.967 83.9687 179.373 82.9781 179.373C81.9787 179.373 81.0766 178.967 80.4222 178.321C79.7678 177.667 79.37 176.765 79.37 175.765C79.37 174.766 79.7678 173.864 80.4222 173.218C81.0766 172.564 81.9784 172.157 82.9781 172.157ZM84.6406 174.094C84.2159 173.67 83.6237 173.404 82.9781 173.404C82.3237 173.404 81.7309 173.67 81.3066 174.094C80.8819 174.528 80.6169 175.111 80.6169 175.766C80.6169 176.42 80.8819 177.013 81.3066 177.437C81.7306 177.862 82.3237 178.127 82.9781 178.127C83.6237 178.127 84.2159 177.862 84.6406 177.437C85.0737 177.013 85.3391 176.42 85.3391 175.766C85.3391 175.111 85.0737 174.528 84.6406 174.094Z" fill="#333333"/>
<path d="M85.8606 199.378C85.5156 199.378 85.2422 199.095 85.2422 198.75C85.2422 198.405 85.5159 198.131 85.8606 198.131H88.1247C88.9031 198.131 89.5931 198.582 89.8937 199.298L92.8209 206.427C92.9447 206.727 92.9887 207.028 92.9534 207.329C92.8916 207.939 92.4844 208.505 91.945 208.788C91.6709 208.929 91.3703 209 91.0522 209H54.9525C54.6341 209 54.3334 208.929 54.0594 208.788C53.5109 208.505 53.1131 207.939 53.0425 207.329C53.0159 207.028 53.06 206.727 53.175 206.427L56.1112 199.298C56.4119 198.582 57.1016 198.131 57.88 198.131H60.1262C60.4712 198.131 60.7453 198.406 60.7453 198.75C60.7453 199.095 60.4712 199.378 60.1262 199.378H57.88C57.6059 199.378 57.3669 199.511 57.2609 199.776L54.3337 206.904C54.2894 207.002 54.2719 207.098 54.2806 207.196C54.3072 207.399 54.4487 207.585 54.6256 207.683C54.7228 207.727 54.8287 207.753 54.9528 207.753H91.0528C91.1766 207.753 91.2825 207.727 91.3712 207.683C91.5572 207.585 91.6984 207.4 91.7162 207.196C91.725 207.098 91.7162 207.002 91.6719 206.904L88.7447 199.776C88.6384 199.51 88.3997 199.378 88.1256 199.378H85.8606Z" fill="#333333"/>
<path d="M82.3503 190.835C82.3503 190.49 82.6331 190.207 82.9781 190.207C83.3231 190.207 83.5972 190.49 83.5972 190.835V205.79C83.5972 206.135 83.3228 206.417 82.9781 206.417H63.0266C62.6816 206.417 62.4075 206.135 62.4075 205.79V178.454C62.4075 177.923 62.6375 177.446 63.0091 177.101C63.3628 176.765 63.8581 176.552 64.3975 176.552H74.2403C74.5853 176.552 74.8594 176.835 74.8594 177.181C74.8594 177.526 74.585 177.808 74.2403 177.808H64.3975C64.1763 177.808 63.9906 177.879 63.8494 178.012C63.7256 178.127 63.6547 178.286 63.6547 178.454V205.17H82.3506L82.3503 190.835Z" fill="#333333"/>
</g>
<mask id="mask0_22_323" style="mask-type:luminance" maskUnits="userSpaceOnUse" x="20" y="317" width="40" height="40">
<path d="M20 317H60V357H20V317Z" fill="white"/>
</mask>
<g mask="url(#mask0_22_323)">
<path d="M41.5657 326.411L44.697 317.586H30.9193L27.1617 335.748H38.2525L30.9193 356.414L52.8383 330.737H40.0304L40.697 328.859" stroke="#333333" stroke-miterlimit="10" stroke-linecap="round" stroke-linejoin="round"/>
</g>
<g clip-path="url(#clip1_22_323)">
<mask id="mask1_22_323" style="mask-type:luminance" maskUnits="userSpaceOnUse" x="53" y="465" width="40" height="40">
<path d="M53 465H93V505H53V465Z" fill="white"/>
</mask>
<g mask="url(#mask1_22_323)">
<path d="M55.0986 487.045V483.77C55.0986 482.542 56.0943 481.546 57.3226 481.546H57.6875" stroke="#333333" stroke-miterlimit="10" stroke-linecap="round" stroke-linejoin="round"/>
<path d="M88.3906 481.546H88.6774C89.9057 481.546 90.9014 482.542 90.9014 483.77V486.967" stroke="#333333" stroke-miterlimit="10" stroke-linecap="round" stroke-linejoin="round"/>
<path d="M57.6916 485.14V481.402C57.6916 479.786 58.7291 478.412 60.1746 477.91" stroke="#333333" stroke-miterlimit="10" stroke-linecap="round" stroke-linejoin="round"/>
<path d="M64.9303 477.92C66.361 478.43 67.3853 479.796 67.3853 481.402L67.405 482.262" stroke="#333333" stroke-miterlimit="10" stroke-linecap="round" stroke-linejoin="round"/>
<path d="M62.5417 478.938H62.5352C60.883 478.938 59.5436 477.598 59.5436 475.946V473.402C59.5436 471.75 60.883 470.411 62.5352 470.411H62.5417C64.1938 470.411 65.5332 471.75 65.5332 473.402V475.946C65.5332 477.598 64.1938 478.938 62.5417 478.938Z" stroke="#333333" stroke-miterlimit="10" stroke-linecap="round" stroke-linejoin="round"/>
<path d="M59.5436 474.674V473.409C59.5436 471.753 60.8845 470.411 62.5384 470.411C64.1924 470.411 65.5332 471.753 65.5332 473.409L59.5436 474.674Z" stroke="#333333" stroke-miterlimit="10" stroke-linecap="round" stroke-linejoin="round"/>
<path d="M85.1437 470.827C85.3877 470.102 86.0733 469.579 86.881 469.579C87.8931 469.579 88.7135 470.4 88.7135 471.412V478.012C88.7135 478.617 88.4204 479.153 87.9685 479.487" stroke="#333333" stroke-miterlimit="10" stroke-linecap="round" stroke-linejoin="round"/>
<path d="M85.8529 477.919C87.284 478.429 88.3084 479.796 88.3084 481.402V485.139" stroke="#333333" stroke-miterlimit="10" stroke-linecap="round" stroke-linejoin="round"/>
<path d="M78.6147 482.266V481.402C78.6147 479.796 79.6394 478.429 81.0708 477.919" stroke="#333333" stroke-miterlimit="10" stroke-linecap="round" stroke-linejoin="round"/>
<path d="M83.4648 478.938H83.4583C81.8061 478.938 80.4668 477.598 80.4668 475.946V473.402C80.4668 471.75 81.8061 470.411 83.4583 470.411H83.4648C85.117 470.411 86.4564 471.75 86.4564 473.402V475.946C86.4564 477.598 85.117 478.938 83.4648 478.938Z" stroke="#333333" stroke-miterlimit="10" stroke-linecap="round" stroke-linejoin="round"/>
<path d="M80.4668 474.674V473.409C80.4668 471.753 81.8076 470.411 83.4615 470.411C85.1155 470.411 86.4564 471.753 86.4564 473.409L80.4668 474.674Z" stroke="#333333" stroke-miterlimit="10" stroke-linecap="round" stroke-linejoin="round"/>
<path d="M78.5567 498.361C76.7962 498.588 74.931 498.71 73 498.71C71.065 498.71 69.196 498.587 67.4324 498.359" stroke="#333333" stroke-miterlimit="10" stroke-linecap="round" stroke-linejoin="round"/>
<path d="M75.8362 481.997C85.2139 482.591 92.414 486.086 92.414 490.309C92.414 492.35 90.7318 494.221 87.9346 495.677" stroke="#333333" stroke-miterlimit="10" stroke-linecap="round" stroke-linejoin="round"/>
<path d="M58.1053 495.697C55.2841 494.239 53.5859 492.36 53.5859 490.309C53.5859 485.927 61.3392 482.328 71.2334 481.942" stroke="#333333" stroke-miterlimit="10" stroke-linecap="round" stroke-linejoin="round"/>
<path d="M57.6916 497.483C57.6916 496.178 58.3677 495.032 59.3888 494.374" stroke="#333333" stroke-miterlimit="10" stroke-linecap="round" stroke-linejoin="round"/>
<path d="M65.6541 494.352C66.6941 495.006 67.3852 496.164 67.3852 497.483V499.685" stroke="#333333" stroke-miterlimit="10" stroke-linecap="round" stroke-linejoin="round"/>
<path d="M60.2003 497.554C59.7894 497.042 59.5436 496.392 59.5436 495.684V489.483C59.5436 487.831 60.883 486.492 62.5351 486.492H62.5416C64.1938 486.492 65.5332 487.831 65.5332 489.483V495.684C65.5332 496.877 64.8346 497.907 63.8242 498.387" stroke="#333333" stroke-miterlimit="10" stroke-linecap="round" stroke-linejoin="round"/>
<path d="M88.3084 497.63V497.483C88.3084 495.863 87.2663 494.487 85.8158 493.988" stroke="#333333" stroke-miterlimit="10" stroke-linecap="round" stroke-linejoin="round"/>
<path d="M81.1281 493.981C79.6668 494.474 78.6148 495.856 78.6148 497.483V499.714" stroke="#333333" stroke-miterlimit="10" stroke-linecap="round" stroke-linejoin="round"/>
<path d="M83.4648 495.019H83.4583C81.8061 495.019 80.4668 493.68 80.4668 492.027V489.483C80.4668 487.831 81.8061 486.492 83.4583 486.492H83.4648C85.117 486.492 86.4564 487.831 86.4564 489.483V492.027C86.4564 493.68 85.117 495.019 83.4648 495.019Z" stroke="#333333" stroke-miterlimit="10" stroke-linecap="round" stroke-linejoin="round"/>
<path d="M64.2721 504.414H56.5611C55.7533 504.414 55.0986 503.759 55.0986 502.952V499.851C55.0986 498.623 56.0943 497.627 57.3226 497.627H62.0481C63.2764 497.627 64.2721 498.623 64.2721 499.851V504.414Z" stroke="#333333" stroke-miterlimit="10" stroke-linecap="round" stroke-linejoin="round"/>
<path d="M64.2488 501.675L67.3852 499.717C68.1476 499.219 69.159 499.766 69.159 500.676C69.159 501.063 68.964 501.424 68.6403 501.636L64.2488 504.414" stroke="#333333" stroke-miterlimit="10" stroke-linecap="round" stroke-linejoin="round"/>
<path d="M81.7279 501.675L78.5915 499.717C77.8292 499.219 76.8178 499.766 76.8178 500.676C76.8178 501.063 77.0128 501.424 77.3364 501.636L81.7279 504.414V501.675Z" stroke="#333333" stroke-miterlimit="10" stroke-linecap="round" stroke-linejoin="round"/>
<path d="M90.9014 499.93V499.851C90.9014 498.623 89.9057 497.627 88.6774 497.627H83.9519C82.7236 497.627 81.7279 498.623 81.7279 499.851V504.414H89.4389C90.217 504.414 90.8514 503.806 90.897 503.039" stroke="#333333" stroke-miterlimit="10" stroke-linecap="round" stroke-linejoin="round"/>
<path d="M78.4721 489.555C78.4721 487.523 76.8256 485.877 74.7945 485.877C72.7635 485.877 71.117 487.523 71.117 489.555C71.117 491.586 72.7635 493.232 74.7945 493.232C75.0438 493.232 75.2872 493.207 75.5225 493.16L77.2206 494.155V492.317C77.9875 491.643 78.4721 490.656 78.4721 489.555Z" stroke="#333333" stroke-miterlimit="10" stroke-linecap="round" stroke-linejoin="round"/>
<path d="M73.0469 490.195C73.801 490.195 73.8021 489.023 73.0469 489.023C72.2928 489.023 72.2916 490.195 73.0469 490.195Z" fill="#333333"/>
<path d="M74.7945 490.195C75.5486 490.195 75.5498 489.023 74.7945 489.023C74.0405 489.023 74.0393 490.195 74.7945 490.195Z" fill="#333333"/>
<path d="M76.5422 490.195C77.2963 490.195 77.2975 489.023 76.5422 489.023C75.7882 489.023 75.787 490.195 76.5422 490.195Z" fill="#333333"/>
<path d="M74.4719 472.709C74.6575 473.148 74.7601 473.631 74.7601 474.138C74.7601 476.169 73.1136 477.816 71.0826 477.816C70.8333 477.816 70.59 477.791 70.3546 477.744L68.6565 478.739V476.901C67.8897 476.227 67.405 475.24 67.405 474.138C67.405 472.107 69.0515 470.461 71.0826 470.461C71.5903 470.461 72.0741 470.564 72.514 470.75" stroke="#333333" stroke-miterlimit="10" stroke-linecap="round" stroke-linejoin="round"/>
<path d="M69.3349 474.779C70.089 474.779 70.0902 473.607 69.3349 473.607C68.5808 473.607 68.5797 474.779 69.3349 474.779Z" fill="#333333"/>
<path d="M71.0826 474.779C71.8366 474.779 71.8379 473.607 71.0826 473.607C70.3285 473.607 70.3272 474.779 71.0826 474.779Z" fill="#333333"/>
<path d="M72.8302 474.779C73.5843 474.779 73.5855 473.607 72.8302 473.607C72.0762 473.607 72.0749 474.779 72.8302 474.779Z" fill="#333333"/>
<path d="M79.6887 469.264C79.6887 467.232 78.0422 465.586 76.0111 465.586C73.9801 465.586 72.3336 467.232 72.3336 469.264C72.3336 471.295 73.9801 472.941 76.0111 472.941C76.2604 472.941 76.5038 472.916 76.7391 472.869L78.4372 473.864V472.026C79.204 471.352 79.6887 470.365 79.6887 469.264Z" stroke="#333333" stroke-miterlimit="10" stroke-linecap="round" stroke-linejoin="round"/>
<path d="M75.0534 468.326L76.969 470.242" stroke="#333333" stroke-miterlimit="10" stroke-linecap="round" stroke-linejoin="round"/>
<path d="M76.9689 468.326L75.0534 470.242" stroke="#333333" stroke-miterlimit="10" stroke-linecap="round" stroke-linejoin="round"/>
</g>
</g>
<g clip-path="url(#clip2_22_323)">
<path d="M219.142 617.858C215.365 614.08 210.342 612 205 612C199.658 612 194.635 614.08 190.858 617.858C187.08 621.635 185 626.658 185 632C185 637.342 187.08 642.365 190.858 646.142C194.635 649.92 199.658 652 205 652C209.175 652 213.176 650.726 216.569 648.317C219.887 645.96 222.38 642.703 223.778 638.899C223.889 638.597 223.734 638.261 223.432 638.15C223.129 638.039 222.794 638.194 222.682 638.497C221.366 642.079 219.018 645.145 215.893 647.365C212.699 649.634 208.932 650.833 205 650.833C199.97 650.833 195.24 648.874 191.683 645.317C188.126 641.76 186.167 637.03 186.167 632C186.167 626.97 188.126 622.24 191.683 618.683C195.24 615.126 199.97 613.167 205 613.167C210.03 613.167 214.76 615.126 218.317 618.683C221.874 622.24 223.833 626.97 223.833 632C223.833 633.34 223.691 634.678 223.413 635.976C223.345 636.291 223.545 636.601 223.86 636.669C224.176 636.736 224.486 636.536 224.554 636.221C224.85 634.843 225 633.422 225 632C225 626.658 222.92 621.635 219.142 617.858Z" fill="#333333"/>
<path d="M195.484 644.116C195.497 644.285 195.582 644.441 195.719 644.542C198.419 646.544 201.629 647.603 205 647.603C213.603 647.603 220.602 640.603 220.602 632C220.602 628.629 219.544 625.42 217.542 622.719C217.441 622.582 217.285 622.497 217.116 622.484C216.947 622.472 216.781 622.534 216.66 622.654L212.105 627.209C211.102 626.702 209.971 626.412 208.776 626.403C208.756 626.403 208.736 626.402 208.716 626.402C208.644 626.402 208.572 626.405 208.5 626.407C208.404 626.097 208.288 625.793 208.152 625.498L213.739 619.912C213.862 619.788 213.924 619.615 213.907 619.442C213.889 619.268 213.795 619.111 213.65 619.014C211.085 617.302 208.094 616.398 205 616.398C196.397 616.398 189.398 623.397 189.398 632C189.398 635.094 190.302 638.085 192.014 640.65C192.111 640.795 192.268 640.89 192.442 640.907C192.461 640.909 192.48 640.91 192.499 640.91C192.653 640.91 192.802 640.849 192.912 640.739L197.58 636.07V636.737C197.58 637.076 197.771 637.375 198.079 637.518C198.197 637.572 198.32 637.598 198.443 637.598C198.642 637.598 198.837 637.528 198.997 637.392L200.449 636.158C200.726 636.189 201.006 636.204 201.283 636.204C201.357 636.204 201.431 636.203 201.504 636.201C201.628 636.598 201.784 636.98 201.969 637.346L195.654 643.66C195.534 643.781 195.472 643.947 195.484 644.116ZM208.837 628.65C208.837 628.285 208.811 627.925 208.761 627.57C208.763 627.57 208.765 627.57 208.767 627.57C212.266 627.596 215.109 630.466 215.104 633.966C215.101 636.331 213.8 638.49 211.709 639.601C211.428 639.751 211.253 640.041 211.253 640.36V641.38L210.205 640.489C210.049 640.357 209.85 640.285 209.646 640.285C209.61 640.285 209.573 640.287 209.536 640.292C209.265 640.327 208.989 640.344 208.717 640.344C205.936 640.344 203.565 638.558 202.69 636.072C206.186 635.411 208.837 632.335 208.837 628.65ZM201.283 635.037C201.01 635.037 200.735 635.02 200.464 634.985C200.223 634.954 199.979 635.026 199.795 635.182L198.747 636.073V635.053C198.747 634.735 198.572 634.444 198.291 634.294C197.352 633.796 196.545 633.063 195.956 632.175C195.778 631.907 195.416 631.833 195.147 632.012C194.878 632.19 194.805 632.552 194.983 632.82C195.535 633.652 196.25 634.369 197.076 634.924L192.602 639.398C191.267 637.166 190.565 634.623 190.565 632C190.565 624.04 197.04 617.565 205 617.565C207.623 617.565 210.166 618.267 212.398 619.602L207.558 624.441C207.282 624.031 206.964 623.644 206.604 623.288C205.164 621.859 203.251 621.082 201.224 621.096C197.085 621.127 193.723 624.521 193.729 628.661C193.729 629.154 193.778 629.647 193.873 630.127C193.936 630.443 194.243 630.648 194.559 630.586C194.875 630.523 195.081 630.216 195.018 629.9C194.937 629.494 194.896 629.077 194.896 628.659C194.891 625.159 197.734 622.29 201.233 622.263C201.25 622.263 201.267 622.263 201.283 622.263C202.981 622.263 204.577 622.92 205.782 624.116C207 625.325 207.67 626.935 207.67 628.65C207.67 632.172 204.805 635.037 201.283 635.037ZM202.593 638.372C203.966 640.272 206.199 641.511 208.717 641.511C208.994 641.511 209.274 641.496 209.551 641.465L211.003 642.699C211.163 642.835 211.358 642.905 211.557 642.905C211.68 642.905 211.804 642.879 211.921 642.825C212.229 642.682 212.42 642.383 212.42 642.044V640.542C214.796 639.205 216.267 636.703 216.271 633.968C216.275 631.452 215.034 629.211 213.131 627.834L216.996 623.969C218.594 626.347 219.435 629.109 219.435 632C219.435 639.96 212.96 646.436 205 646.436C202.109 646.436 199.346 645.594 196.968 643.996L202.593 638.372Z" fill="#333333"/>
</g>
<g clip-path="url(#clip3_22_323)">
<path d="M695.395 497.663C695.072 497.663 694.81 497.926 694.81 498.249V504.376C694.81 505.131 695.98 505.131 695.98 504.376V498.249C695.98 497.926 695.718 497.663 695.395 497.663Z" fill="#333333"/>
<path d="M695.395 484.462H690.799V482.351H692.204C693.06 482.351 693.756 481.655 693.756 480.799V466.552C693.756 465.696 693.06 465 692.204 465H670.366C669.51 465 668.814 465.696 668.814 466.552V468.654C668.814 469.409 669.984 469.409 669.984 468.654V466.552C669.984 466.342 670.155 466.171 670.366 466.171H692.204C692.414 466.171 692.585 466.342 692.585 466.552V477.902H690.799V471.666C690.799 471.473 690.703 471.292 690.544 471.183C690.385 471.074 690.182 471.05 690.002 471.12C689.848 471.179 686.619 472.498 685.932 477.902H669.984V471.698C669.984 470.943 668.814 470.943 668.814 471.698V480.799C668.814 481.655 669.51 482.351 670.366 482.351H678.229V484.462H664.938C666.234 483.167 666.361 481.116 666.361 479.393C666.361 479.069 666.099 478.807 665.776 478.807H662.615V477.702C664.492 478.101 666.54 476.561 666.514 474.608C666.511 474.346 666.479 474.081 666.237 473.921C665.125 473.187 663.594 473.493 662.615 474.294V473.238C664.287 472.084 664.412 469.365 662.804 468.096C662.642 467.968 662.463 467.846 662.271 467.768C661.446 467.431 660.539 468.901 660.342 469.468C659.878 470.808 660.298 472.35 661.444 473.2V474.288C660.692 473.676 659.711 473.375 658.752 473.567C658.356 473.646 657.662 473.826 657.576 474.306C657.204 476.372 659.545 478.102 661.444 477.704V478.807H658.049C657.725 478.807 657.463 479.069 657.463 479.393C657.463 481.113 657.557 483.167 658.853 484.462H656.605C656.282 484.462 656.02 484.724 656.02 485.047V504.376C656.02 505.131 657.19 505.131 657.19 504.376V501.644H667.766V504.376C667.766 505.131 668.937 505.131 668.937 504.376V489.468H689.636C689.639 489.672 689.659 490.771 689.661 491.1H679.755C677.44 491.1 675.726 491.702 674.658 492.89C673.376 494.317 673.545 496.046 673.553 496.118C673.585 496.416 673.836 496.641 674.135 496.641H681.698V497.695H679.395C678.64 497.695 678.64 498.866 679.395 498.866H681.698V503.79H674.205C673.45 503.79 673.45 504.961 674.205 504.961H682.074C682.139 504.986 682.209 505 682.283 505C682.357 505 682.427 504.986 682.492 504.961H690.361C691.116 504.961 691.116 503.79 690.361 503.79H682.868V496.641H686.779C688.123 496.641 689.094 496.317 689.749 495.651C690.896 494.483 690.861 492.527 690.817 490.051C690.813 489.86 690.81 489.665 690.807 489.468H694.81V494.971C694.81 495.726 695.98 495.726 695.98 494.971V485.047C695.98 484.724 695.718 484.462 695.395 484.462ZM663.592 475.029C664.346 474.551 665.001 474.664 665.342 474.784C665.239 475.998 663.764 476.881 662.636 476.498C662.684 476.123 662.874 475.484 663.592 475.029ZM659.701 476.247C659.204 475.931 658.781 475.388 658.726 474.784C659.899 474.372 661.277 475.285 661.43 476.498C660.861 476.691 660.2 476.563 659.701 476.247ZM662.059 468.994C663.04 469.739 662.996 471.441 662.056 472.198C661.766 471.959 661.329 471.458 661.329 470.602C661.329 469.71 661.775 469.217 662.059 468.994ZM658.642 479.978H665.181C665.082 483.14 664.139 484.388 661.912 484.388C659.655 484.388 658.737 483.18 658.642 479.978ZM688.914 494.831C688.491 495.261 687.792 495.471 686.779 495.471H674.733C674.787 495.003 674.967 494.298 675.529 493.673C676.365 492.742 677.787 492.271 679.755 492.271H689.646C689.598 493.418 689.424 494.311 688.914 494.831ZM692.585 479.073V480.799C692.585 481.01 692.414 481.181 692.204 481.181H690.799V479.073H692.585ZM688.712 473.691C689.031 473.27 689.351 472.957 689.628 472.73V487.392C689.352 487.156 689.034 486.834 688.718 486.407C687.577 484.866 686.974 482.657 686.974 480.017C686.974 477.381 687.575 475.194 688.712 473.691ZM685.961 482.351C686.073 483.139 686.238 483.84 686.44 484.462H684.341V482.351H685.961ZM669.984 480.799V479.073H685.828C685.791 479.775 685.795 480.479 685.841 481.18H670.366C670.155 481.181 669.984 481.01 669.984 480.799ZM679.399 482.351H683.17V484.462H679.399V482.351ZM686.9 485.633C687.51 486.936 688.267 487.778 688.879 488.298H657.19V485.633H686.9ZM657.19 500.473V495.556H667.766V500.473H657.19ZM667.766 494.385H657.19V489.468H667.766V494.385ZM690.799 488.298V485.633H694.81V488.298H690.799Z" fill="#333333"/>
<path d="M660.273 492.512H664.722C665.477 492.512 665.477 491.341 664.722 491.341H660.273C659.518 491.341 659.518 492.512 660.273 492.512Z" fill="#333333"/>
<path d="M664.722 497.429H660.273C659.518 497.429 659.518 498.6 660.273 498.6H664.722C665.477 498.6 665.477 497.429 664.722 497.429Z" fill="#333333"/>
</g>
<path d="M704.466 332.536C704.129 332.168 703.649 331.952 703.15 331.944C702.145 331.931 701.314 332.732 701.297 333.736C701.292 334.059 701.549 334.326 701.873 334.332C701.876 334.332 701.88 334.332 701.883 334.332C702.202 334.332 702.463 334.076 702.469 333.756C702.475 333.397 702.769 333.109 703.131 333.116C703.312 333.118 703.479 333.193 703.601 333.327C703.819 333.566 704.19 333.583 704.429 333.364C704.667 333.146 704.684 332.775 704.466 332.536Z" fill="#333333"/>
<path d="M707.583 334.446C707.404 334.024 707.054 333.691 706.624 333.532C705.759 333.213 704.794 333.656 704.474 334.52C704.361 334.824 704.516 335.161 704.819 335.273C704.886 335.298 704.955 335.31 705.023 335.31C705.261 335.31 705.485 335.164 705.572 334.928C705.669 334.668 705.959 334.536 706.218 334.631C706.348 334.679 706.45 334.776 706.505 334.905C706.631 335.202 706.976 335.341 707.273 335.214C707.571 335.088 707.71 334.744 707.583 334.446Z" fill="#333333"/>
<path d="M711.36 329.257C711.131 329.028 710.76 329.028 710.531 329.257L709.979 329.811C709.75 330.04 709.751 330.411 709.98 330.639C710.094 330.754 710.244 330.811 710.393 330.811C710.544 330.811 710.694 330.753 710.808 330.639L711.361 330.085C711.589 329.856 711.589 329.485 711.36 329.257Z" fill="#333333"/>
<path d="M707.714 336.821H706.933C706.61 336.821 706.348 337.083 706.348 337.407C706.348 337.73 706.61 337.993 706.933 337.993H707.714C708.038 337.993 708.3 337.73 708.3 337.407C708.3 337.083 708.038 336.821 707.714 336.821Z" fill="#333333"/>
<path d="M713.702 336.821H712.921C712.597 336.821 712.335 337.083 712.335 337.407C712.335 337.73 712.598 337.993 712.921 337.993H713.702C714.026 337.993 714.288 337.73 714.288 337.407C714.288 337.083 714.026 336.821 713.702 336.821Z" fill="#333333"/>
<path d="M728.981 347.386L728.829 346.562C728.731 346.036 728.272 345.654 727.736 345.654C727.669 345.654 727.601 345.66 727.534 345.673L724.428 346.243L725.835 345.303C726.203 345.056 726.39 344.616 726.309 344.178C726.287 344.059 726.245 343.944 726.184 343.836L725.759 343.082C725.613 342.823 725.364 342.631 725.077 342.555C724.936 342.517 724.789 342.509 724.646 342.528C724.803 341.663 724.883 340.78 724.883 339.881C724.883 339.482 724.643 339.139 724.301 338.987C724.749 337.922 724.779 336.703 724.337 335.587C724.301 335.496 724.247 335.415 724.178 335.346C724.11 335.278 724.03 335.225 723.939 335.188C723.409 334.977 722.852 334.87 722.283 334.87C722.21 334.87 722.138 334.872 722.065 334.875C721.984 333.24 720.631 331.934 718.978 331.934C718.761 331.934 718.549 331.958 718.344 332.001C718.486 331.149 718.402 330.258 718.071 329.422C718.035 329.33 717.981 329.247 717.909 329.174C717.839 329.104 717.757 329.05 717.666 329.013C717.094 328.786 716.494 328.671 715.881 328.671C714.958 328.671 714.075 328.93 713.313 329.413C713.034 328.606 712.575 327.848 711.933 327.205C711.745 327.017 711.495 326.913 711.229 326.913C710.963 326.913 710.713 327.017 710.525 327.205L707.688 330.049C707.163 329.58 706.472 329.301 705.722 329.301C705.552 329.301 705.38 329.315 705.212 329.345C704.601 329.451 704.038 329.75 703.607 330.189C703.054 329.922 702.421 329.831 701.812 329.937C701.678 329.96 701.548 329.993 701.422 330.033V327.842C701.422 326.333 700.209 325.103 698.709 325.077V323.834C699.168 323.755 699.519 323.355 699.519 322.873V320.058C699.519 319.519 699.081 319.081 698.543 319.081H693.778C693.239 319.081 692.801 319.519 692.801 320.058V322.873C692.801 323.355 693.152 323.755 693.611 323.834V325.077C692.111 325.103 690.898 326.333 690.898 327.841V344.943C689.728 345.999 689 347.473 689 349.103C689 352.31 691.814 354.919 695.274 354.919L718.726 354.912C719.526 354.912 720.279 354.56 720.791 353.947C721.29 353.35 721.502 352.575 721.38 351.811L726.064 352.653C726.129 352.664 726.195 352.67 726.261 352.67C726.495 352.67 726.719 352.599 726.908 352.463C727.152 352.289 727.317 352.02 727.361 351.724L727.488 350.873C727.506 350.751 727.504 350.628 727.481 350.508C727.401 350.072 727.069 349.727 726.637 349.628L724.986 349.249L728.089 348.679C728.382 348.625 728.636 348.461 728.804 348.216C728.972 347.972 729.035 347.678 728.981 347.386ZM722.283 336.042C722.635 336.042 722.982 336.098 723.316 336.208C723.614 337.115 723.502 338.094 723.036 338.902H721.457L721.961 338.397C722.189 338.168 722.189 337.797 721.96 337.569C721.731 337.34 721.36 337.34 721.131 337.57L720.865 337.837C720.74 337.425 720.522 337.057 720.235 336.755C720.817 336.293 721.53 336.042 722.283 336.042ZM718.978 333.106C720.037 333.106 720.897 333.97 720.897 335.031C720.897 335.051 720.897 335.07 720.896 335.09C720.278 335.29 719.709 335.626 719.223 336.082C719.146 336.052 719.068 336.025 718.987 336.003C718.816 335.077 718.192 334.335 717.368 333.988C717.71 333.458 718.303 333.106 718.978 333.106ZM715.881 329.842C716.279 329.842 716.67 329.907 717.047 330.034C717.35 330.935 717.288 331.902 716.902 332.74C716.585 333.029 716.327 333.383 716.152 333.781C716.047 333.787 715.942 333.798 715.839 333.816C715.38 333.896 714.952 334.095 714.593 334.384C714.471 334.161 714.322 333.955 714.15 333.769L715.494 332.422C715.722 332.193 715.722 331.822 715.493 331.594C715.264 331.365 714.893 331.366 714.664 331.595L713.196 333.067C712.916 332.935 712.614 332.843 712.297 332.8C712.434 332.101 712.773 331.442 713.298 330.916C713.988 330.223 714.906 329.842 715.881 329.842ZM711.391 338.902H710.883C710.798 338.684 710.586 338.53 710.338 338.53C710.09 338.53 709.879 338.685 709.793 338.902H709.196C709.335 338.676 709.306 338.377 709.111 338.181C708.882 337.953 708.511 337.953 708.282 338.182L707.73 338.736C707.68 338.785 707.642 338.842 707.614 338.902H706.421C705.975 338.217 705.702 337.408 705.67 336.537H714.966C714.933 337.408 714.661 338.217 714.214 338.902H712.973C712.945 338.842 712.907 338.785 712.857 338.736L712.305 338.182C712.076 337.953 711.706 337.953 711.477 338.181C711.281 338.377 711.252 338.676 711.391 338.902ZM710.029 335.366C710.249 334.547 710.996 333.943 711.881 333.943C712.766 333.943 713.512 334.547 713.733 335.366H710.029ZM711.227 328.161C711.784 328.763 712.153 329.478 712.333 330.23C712.034 330.555 711.786 330.914 711.59 331.297C711.501 331.242 711.396 331.21 711.284 331.21H710.504C710.18 331.21 709.918 331.472 709.918 331.796C709.918 332.12 710.18 332.382 710.504 332.382H711.189C711.15 332.544 711.12 332.708 711.098 332.873C710.866 332.934 710.644 333.021 710.436 333.131C710.045 332.457 709.398 331.955 708.632 331.754C708.632 331.752 708.632 331.75 708.631 331.749C708.585 331.484 708.505 331.232 708.396 330.998L711.227 328.161ZM700.635 333.448C700.6 333.352 700.574 333.253 700.557 333.154C700.389 332.186 701.042 331.26 702.013 331.091C702.115 331.073 702.219 331.064 702.322 331.064C702.708 331.064 703.077 331.187 703.389 331.42C703.518 331.517 703.681 331.556 703.839 331.528C703.998 331.5 704.139 331.409 704.228 331.275C704.503 330.86 704.924 330.584 705.413 330.499C705.515 330.481 705.619 330.472 705.722 330.472C706.59 330.472 707.328 331.093 707.477 331.949C707.494 332.047 707.502 332.149 707.503 332.253C707.503 332.556 707.735 332.809 708.037 332.836C708.692 332.893 709.25 333.305 709.508 333.886C709.162 334.302 708.922 334.809 708.831 335.366H705.49C705.074 335.366 704.718 335.622 704.569 335.985C703.834 335.484 702.968 335.215 702.06 335.215C701.491 335.215 700.934 335.322 700.403 335.533C700.313 335.569 700.232 335.622 700.164 335.691C700.094 335.76 700.041 335.842 700.006 335.931C699.871 336.271 699.781 336.621 699.733 336.972C699.523 336.733 699.375 336.436 699.317 336.102C699.179 335.307 699.595 334.516 700.329 334.177C700.604 334.05 700.737 333.734 700.635 333.448ZM702.382 338.742L702.541 338.902H701.134C700.818 338.169 700.77 337.335 701.027 336.552C701.361 336.442 701.707 336.386 702.06 336.386C702.943 336.386 703.773 336.731 704.398 337.358C704.481 337.441 704.559 337.529 704.631 337.619C704.731 338.068 704.883 338.498 705.08 338.902H704.197L703.211 337.914C702.982 337.685 702.611 337.684 702.383 337.913C702.153 338.142 702.153 338.513 702.382 338.742ZM699.886 338.902H697.797C697.891 338.335 698.232 337.851 698.706 337.565C698.986 337.941 699.353 338.245 699.774 338.451C699.804 338.603 699.841 338.754 699.886 338.902ZM693.973 320.253H698.347V322.678H693.973V320.253ZM697.537 323.85V325.076H694.783V323.85H697.537ZM692.07 330.218H695.875C696.199 330.218 696.461 329.955 696.461 329.632C696.461 329.308 696.199 329.046 695.875 329.046H692.07V327.841C692.07 326.963 692.783 326.248 693.659 326.248H698.661C699.537 326.248 700.25 326.963 700.25 327.841V329.046H699.156C698.833 329.046 698.57 329.308 698.57 329.632C698.57 329.955 698.833 330.218 699.156 330.218H700.25V330.738C699.579 331.396 699.23 332.361 699.402 333.354C699.403 333.356 699.403 333.358 699.403 333.36C698.463 334.005 697.963 335.152 698.162 336.303C698.174 336.37 698.188 336.436 698.204 336.501C697.912 336.663 697.649 336.871 697.423 337.115H692.07V330.218ZM692.07 338.287H696.743C696.681 338.484 696.637 338.69 696.615 338.902H696.517C695.977 338.902 695.539 339.341 695.539 339.881C695.539 340.811 695.625 341.725 695.793 342.618C695.624 342.605 695.452 342.598 695.276 342.598C694.567 342.598 693.892 342.71 693.375 342.914C692.584 343.227 692.365 343.67 692.318 343.977C692.234 344.019 692.152 344.063 692.07 344.108V338.287ZM699.49 345.485C699.701 345.654 699.83 345.797 699.904 345.901C699.897 345.901 699.89 345.901 699.883 345.901C699.551 345.901 698.955 345.767 698.277 345.392C698.025 345.252 697.793 345.094 697.605 344.936C697.387 344.75 697.066 344.751 696.848 344.936C696.66 345.095 696.428 345.253 696.176 345.392C695.498 345.767 694.902 345.901 694.571 345.901C694.563 345.901 694.556 345.901 694.549 345.901C694.623 345.797 694.752 345.654 694.963 345.485C695.148 345.337 695.226 345.093 695.161 344.866C695.095 344.639 694.9 344.473 694.666 344.445C694.094 344.378 693.732 344.233 693.563 344.127C693.775 343.995 694.311 343.769 695.276 343.769C696.075 343.769 696.66 343.938 696.94 344.095C697.118 344.195 697.335 344.195 697.513 344.095C697.794 343.938 698.378 343.77 699.177 343.77C700.142 343.77 700.678 343.995 700.89 344.127C700.721 344.233 700.36 344.378 699.788 344.445C699.553 344.473 699.358 344.639 699.293 344.866C699.227 345.093 699.305 345.337 699.49 345.485ZM698.317 352.617L698.338 352.725C698.407 353.101 698.554 353.447 698.76 353.747H695.274C692.461 353.747 690.172 351.664 690.172 349.103C690.172 347.354 691.241 345.827 692.816 345.036C692.997 345.171 693.222 345.287 693.49 345.381C693.384 345.562 693.31 345.757 693.292 345.96C693.269 346.231 693.352 346.487 693.525 346.683C693.754 346.942 694.106 347.073 694.571 347.073C695.19 347.073 696.002 346.828 696.743 346.417C696.914 346.323 697.076 346.223 697.227 346.119C697.378 346.223 697.539 346.323 697.71 346.417C698.451 346.828 699.263 347.073 699.883 347.073H699.883C700.347 347.073 700.699 346.942 700.928 346.683C701.101 346.487 701.184 346.231 701.161 345.96C701.143 345.757 701.069 345.562 700.963 345.381C701.231 345.287 701.456 345.171 701.637 345.036C702.886 345.664 703.817 346.753 704.148 348.051L700.004 349.625C698.791 350.086 698.082 351.344 698.317 352.617ZM719.892 353.196C719.603 353.542 719.178 353.74 718.725 353.74L718.11 353.741L717.726 351.666C717.667 351.348 717.362 351.137 717.043 351.196C716.725 351.255 716.515 351.561 716.574 351.879L716.919 353.741L714.903 353.742L714.643 352.339C714.584 352.021 714.278 351.81 713.96 351.869C713.642 351.928 713.432 352.234 713.491 352.552L713.711 353.742L709.021 353.744L708.668 351.839C708.609 351.52 708.304 351.31 707.986 351.369C707.667 351.428 707.457 351.734 707.516 352.052L707.83 353.744L700.982 353.747C700.982 353.747 700.982 353.747 700.982 353.747C700.25 353.747 699.622 353.228 699.49 352.511L699.469 352.403C699.337 351.688 699.737 350.98 700.42 350.72L702.723 349.845L702.895 350.771C702.947 351.054 703.193 351.251 703.47 351.251C703.506 351.251 703.542 351.247 703.578 351.241C703.896 351.182 704.106 350.876 704.047 350.558L703.837 349.422L707.255 348.124C707.557 348.009 707.709 347.671 707.595 347.368C707.48 347.065 707.141 346.913 706.839 347.028L705.248 347.633C704.802 346.053 703.655 344.733 702.135 343.977C702.087 343.67 701.869 343.227 701.078 342.914C700.561 342.71 699.886 342.598 699.177 342.598C698.689 342.598 698.224 342.651 697.813 342.749V342.395C697.813 342.072 697.55 341.81 697.227 341.81C697.09 341.81 696.964 341.857 696.865 341.935C696.772 341.324 696.72 340.703 696.712 340.074H715.797C716.12 340.074 716.383 339.812 716.383 339.488C716.383 339.164 716.12 338.902 715.797 338.902H715.557C715.93 338.134 716.141 337.272 716.141 336.361C716.141 335.845 715.745 335.419 715.241 335.37C715.461 335.163 715.735 335.024 716.04 334.971C716.129 334.955 716.22 334.947 716.31 334.947C717.066 334.947 717.709 335.488 717.838 336.234C717.853 336.32 717.861 336.409 717.861 336.499C717.861 336.802 718.093 337.055 718.396 337.082C719.096 337.143 719.669 337.67 719.789 338.362C719.821 338.546 719.817 338.728 719.785 338.902H719.156C718.832 338.902 718.57 339.164 718.57 339.488C718.57 339.812 718.832 340.074 719.156 340.074H723.71C723.696 341.149 723.557 342.199 723.299 343.217L720.124 345.092C719.929 344.416 719.478 343.843 718.856 343.494C718.158 343.104 717.329 343.043 716.582 343.327L710.042 345.811C709.739 345.926 709.587 346.265 709.702 346.567C709.817 346.87 710.156 347.022 710.458 346.907L711.32 346.58L711.587 348.024C711.639 348.306 711.886 348.503 712.162 348.503C712.198 348.503 712.234 348.5 712.27 348.494C712.588 348.435 712.798 348.129 712.739 347.811L712.433 346.157L716.998 344.423C717.421 344.262 717.889 344.297 718.284 344.517C718.677 344.737 718.95 345.117 719.032 345.559L720.217 351.958C720.299 352.4 720.18 352.851 719.892 353.196ZM721.983 348.609C721.709 348.66 721.509 348.895 721.503 349.173C721.497 349.451 721.687 349.695 721.957 349.757L726.32 350.757L726.211 351.489L721.154 350.58L720.363 346.311L724.768 343.711L725.135 344.361L721.419 346.845C721.188 346.999 721.098 347.294 721.202 347.552C721.307 347.809 721.578 347.958 721.851 347.908L727.687 346.836L727.817 347.537L721.983 348.609Z" fill="#333333"/>
<path d="M546.894 641.583C547.228 641.583 547.498 641.312 547.498 640.978C547.498 640.644 547.228 640.374 546.894 640.374C546.56 640.374 546.289 640.644 546.289 640.978C546.289 641.312 546.56 641.583 546.894 641.583Z" fill="#333333"/>
<path d="M557.236 639.084C556.191 639.084 555.341 639.933 555.341 640.978C555.341 642.023 556.191 642.873 557.236 642.873C558.281 642.873 559.131 642.023 559.131 640.978C559.131 639.933 558.281 639.084 557.236 639.084ZM557.236 641.663C556.858 641.663 556.551 641.356 556.551 640.978C556.551 640.6 556.858 640.293 557.236 640.293C557.614 640.293 557.921 640.6 557.921 640.978C557.921 641.356 557.614 641.663 557.236 641.663Z" fill="#333333"/>
<path d="M561.599 634.647H554.799C555.981 633.327 556.475 631.471 556.018 629.688L554.462 623.616C554.379 623.292 554.049 623.097 553.726 623.18C553.402 623.263 553.207 623.592 553.29 623.916L554.846 629.988C555.295 631.74 554.563 633.585 553.058 634.558L549.836 630.522C549.203 629.73 548.259 629.275 547.245 629.275H543H538.755C537.741 629.275 536.797 629.73 536.164 630.522L532.942 634.558C531.437 633.585 530.705 631.74 531.154 629.988L533.129 622.28C533.447 621.038 534.354 620.028 535.555 619.579L537.216 618.958C537.6 618.814 538.037 618.909 538.327 619.2L538.327 619.2L539.983 620.855C540.401 621.274 540.957 621.504 541.549 621.504H543H544.451C545.043 621.504 545.599 621.274 546.017 620.855L547.673 619.2C547.963 618.909 548.4 618.814 548.785 618.958L550.445 619.579C551.421 619.944 552.199 620.667 552.635 621.614C552.737 621.835 552.956 621.966 553.184 621.966C553.269 621.966 553.355 621.948 553.437 621.91C553.74 621.771 553.873 621.412 553.733 621.108C553.163 619.869 552.146 618.924 550.869 618.447L549.208 617.826C548.466 617.548 547.634 617.685 547.02 618.168H538.981C538.366 617.685 537.535 617.548 536.792 617.826L535.132 618.447C533.561 619.034 532.374 620.355 531.958 621.979L529.983 629.688C529.526 631.471 530.019 633.327 531.202 634.647H524.401C523.628 634.647 523 635.275 523 636.048V639.89V642.067V645.909C523 646.681 523.628 647.31 524.401 647.31H526.856V647.712C526.856 648.046 527.127 648.317 527.461 648.317C527.795 648.317 528.065 648.046 528.065 647.712V647.31H557.935V647.712C557.935 648.046 558.205 648.317 558.539 648.317C558.873 648.317 559.144 648.046 559.144 647.712V647.31H561.599C562.372 647.31 563 646.681 563 645.909V636.048C563 635.275 562.372 634.647 561.599 634.647ZM545.786 619.377L545.162 620C544.972 620.19 544.72 620.295 544.451 620.295H543H541.549C541.281 620.295 541.028 620.19 540.838 620L540.214 619.377H545.786ZM561.599 646.1H524.401C524.295 646.1 524.209 646.014 524.209 645.909V642.067V640.495H543.437V641.462H526.198C525.864 641.462 525.593 641.733 525.593 642.067C525.593 642.4 525.864 642.671 526.198 642.671H543.525C544.143 642.671 544.646 642.168 544.646 641.55V640.406C544.646 639.788 544.143 639.285 543.525 639.285H524.209V636.048C524.209 635.942 524.295 635.856 524.401 635.856H532.991C532.997 635.856 533.004 635.857 533.01 635.857C533.017 635.857 533.024 635.856 533.031 635.856H535.818C536.152 635.856 536.423 635.585 536.423 635.251C536.423 634.918 536.152 634.647 535.818 634.647H534.418L537.109 631.277C537.511 630.773 538.111 630.485 538.755 630.485H543H547.245C547.889 630.485 548.489 630.773 548.891 631.277L551.582 634.647H538.458C538.124 634.647 537.853 634.918 537.853 635.251C537.853 635.585 538.124 635.856 538.458 635.856H552.969C552.976 635.856 552.983 635.857 552.99 635.857C552.996 635.857 553.003 635.856 553.009 635.856H561.599C561.705 635.856 561.791 635.942 561.791 636.048V645.909H561.791C561.791 646.014 561.705 646.1 561.599 646.1Z" fill="#333333"/>
<path d="M536.709 619.987C535.581 619.987 534.664 620.904 534.664 622.032C534.664 623.159 535.581 624.077 536.709 624.077C537.836 624.077 538.754 623.159 538.754 622.032C538.754 620.904 537.836 619.987 536.709 619.987ZM536.709 622.867C536.248 622.867 535.873 622.492 535.873 622.032C535.873 621.571 536.248 621.196 536.709 621.196C537.17 621.196 537.544 621.571 537.544 622.032C537.544 622.492 537.169 622.867 536.709 622.867Z" fill="#333333"/>
<path d="M546.654 623.967C545.526 623.967 544.609 624.884 544.609 626.012C544.609 627.14 545.526 628.057 546.654 628.057C547.781 628.057 548.699 627.14 548.699 626.012C548.699 624.885 547.781 623.967 546.654 623.967ZM546.654 626.848C546.193 626.848 545.818 626.473 545.818 626.012C545.818 625.551 546.193 625.176 546.654 625.176C547.115 625.176 547.489 625.551 547.489 626.012C547.489 626.473 547.115 626.848 546.654 626.848Z" fill="#333333"/>
<path d="M549.565 621.361C549.899 621.361 550.17 621.09 550.17 620.756C550.17 620.422 549.899 620.152 549.565 620.152C549.231 620.152 548.96 620.422 548.96 620.756C548.96 621.09 549.231 621.361 549.565 621.361Z" fill="#333333"/>
<path d="M549.565 624.572C549.899 624.572 550.17 624.301 550.17 623.967C550.17 623.633 549.899 623.363 549.565 623.363C549.231 623.363 548.96 623.633 548.96 623.967C548.96 624.301 549.231 624.572 549.565 624.572Z" fill="#333333"/>
<path d="M547.838 622.991C548.172 622.991 548.443 622.721 548.443 622.387C548.443 622.053 548.172 621.782 547.838 621.782C547.504 621.782 547.234 622.053 547.234 622.387C547.234 622.721 547.504 622.991 547.838 622.991Z" fill="#333333"/>
<path d="M551.291 622.991C551.625 622.991 551.896 622.721 551.896 622.387C551.896 622.053 551.625 621.782 551.291 621.782C550.958 621.782 550.687 622.053 550.687 622.387C550.687 622.721 550.958 622.991 551.291 622.991Z" fill="#333333"/>
<path d="M541.338 625.407H540.503V624.572C540.503 624.238 540.232 623.967 539.898 623.967C539.564 623.967 539.293 624.238 539.293 624.572V625.407H538.458C538.124 625.407 537.853 625.678 537.853 626.012C537.853 626.346 538.124 626.617 538.458 626.617H539.293V627.452C539.293 627.786 539.564 628.057 539.898 628.057C540.232 628.057 540.503 627.786 540.503 627.452V626.617H541.338C541.672 626.617 541.943 626.346 541.943 626.012C541.943 625.678 541.672 625.407 541.338 625.407Z" fill="#333333"/>
<g clip-path="url(#clip4_22_323)">
<mask id="mask2_22_323" style="mask-type:luminance" maskUnits="userSpaceOnUse" x="656" y="169" width="40" height="40">
<path d="M656 169H696V209H656V169Z" fill="white"/>
</mask>
<g mask="url(#mask2_22_323)">
<path d="M678.547 179.237C678.364 179.387 678.13 179.478 677.875 179.478C677.732 179.478 677.591 179.462 677.456 179.433V183.467C677.456 183.52 677.454 183.572 677.452 183.625C678.821 183.702 680.07 182.69 680.07 181.46C680.07 180.505 679.451 179.535 678.547 179.237Z" stroke="#333333" stroke-miterlimit="10" stroke-linecap="round" stroke-linejoin="round"/>
<path d="M675.847 177.45C675.847 177.341 675.701 177.304 675.65 177.399C674.989 178.636 673.686 179.478 672.185 179.478H666.172V183.466C666.172 186.373 668.45 189.028 671.895 189.028C674.961 189.028 677.456 186.533 677.456 183.466V179.434C676.54 179.239 675.847 178.422 675.847 177.45Z" stroke="#333333" stroke-miterlimit="10" stroke-linecap="round" stroke-linejoin="round"/>
<path d="M666.172 183.467V179.478H665.477C665.266 179.478 665.064 179.437 664.879 179.365C664.128 179.731 663.559 180.593 663.559 181.46C663.559 182.688 664.805 183.703 666.176 183.625C666.174 183.572 666.172 183.519 666.172 183.467Z" stroke="#333333" stroke-miterlimit="10" stroke-linecap="round" stroke-linejoin="round"/>
<path d="M678.585 206.118C678.024 206.118 677.551 205.644 677.551 205.084V201.669C677.551 201.108 678.024 200.634 678.585 200.634C678.024 200.634 677.551 200.161 677.551 199.6V196.185C677.551 195.624 678.024 195.15 678.585 195.15C678.024 195.15 677.551 194.677 677.551 194.116V191.362C676.473 190.944 675.596 190.605 675.327 190.5C675.111 190.417 674.967 190.209 674.966 189.976L674.965 188.1C674.085 188.686 673.029 189.028 671.895 189.028C670.676 189.028 669.604 188.694 668.726 188.136V189.972C668.726 190.404 668.341 190.508 668.177 190.572C667.933 190.667 661.466 193.174 660.489 193.552C659.185 194.089 657.439 195.777 657.439 198.283V207.398C657.439 207.959 657.894 208.414 658.456 208.414H685.24C685.802 208.414 686.257 207.959 686.257 207.398V206.118H678.585Z" stroke="#333333" stroke-miterlimit="10" stroke-linecap="round" stroke-linejoin="round"/>
<path d="M673.092 193.726C672.994 193.636 672.953 193.509 672.967 193.387H670.742C670.757 193.509 670.715 193.636 670.617 193.726L670.505 193.829V197.67C670.505 197.983 670.758 198.236 671.07 198.236H672.639C672.951 198.236 673.204 197.983 673.204 197.67V193.829L673.092 193.726Z" stroke="#333333" stroke-miterlimit="10" stroke-linecap="round" stroke-linejoin="round"/>
<path d="M677.551 191.362C676.616 191 675.834 190.697 675.466 190.554L673.068 193.166C672.92 193.327 672.931 193.578 673.092 193.726L674.496 195.016C674.657 195.164 674.908 195.153 675.056 194.992L677.551 192.275V191.362Z" stroke="#333333" stroke-miterlimit="10" stroke-linecap="round" stroke-linejoin="round"/>
<path d="M665.535 191.596L668.653 194.992C668.801 195.153 669.052 195.164 669.213 195.016L670.617 193.726C670.779 193.578 670.789 193.327 670.641 193.166L668.238 190.549C668.216 190.557 668.195 190.565 668.177 190.572C668.077 190.611 666.925 191.057 665.535 191.596Z" stroke="#333333" stroke-miterlimit="10" stroke-linecap="round" stroke-linejoin="round"/>
<path d="M661.695 208.334V198.987" stroke="#333333" stroke-miterlimit="10" stroke-linecap="round" stroke-linejoin="round"/>
<path d="M693.526 200.634H678.585C678.024 200.634 677.551 201.108 677.551 201.669V205.084C677.551 205.645 678.024 206.118 678.585 206.118H693.526C694.087 206.118 694.561 205.645 694.561 205.084V201.669C694.561 201.108 694.087 200.634 693.526 200.634Z" stroke="#333333" stroke-miterlimit="10" stroke-linecap="round" stroke-linejoin="round"/>
<path d="M685.083 203.376H680.084" stroke="#333333" stroke-miterlimit="10" stroke-linecap="round" stroke-linejoin="round"/>
<path d="M685.083 197.892H680.084" stroke="#333333" stroke-miterlimit="10" stroke-linecap="round" stroke-linejoin="round"/>
<path d="M692.02 197.892H690.962" stroke="#333333" stroke-miterlimit="10" stroke-linecap="round" stroke-linejoin="round"/>
<path d="M693.526 195.15H678.585C678.024 195.15 677.551 195.624 677.551 196.185V199.6C677.551 200.161 678.024 200.634 678.585 200.634H693.526C694.087 200.634 694.561 200.161 694.561 199.6V196.185C694.561 195.624 694.087 195.15 693.526 195.15Z" stroke="#333333" stroke-miterlimit="10" stroke-linecap="round" stroke-linejoin="round"/>
<path d="M685.083 197.892H680.084" stroke="#333333" stroke-miterlimit="10" stroke-linecap="round" stroke-linejoin="round"/>
<path d="M692.02 197.892H690.962" stroke="#333333" stroke-miterlimit="10" stroke-linecap="round" stroke-linejoin="round"/>
<path d="M685.083 192.408H680.084" stroke="#333333" stroke-miterlimit="10" stroke-linecap="round" stroke-linejoin="round"/>
<path d="M692.02 192.408H690.962" stroke="#333333" stroke-miterlimit="10" stroke-linecap="round" stroke-linejoin="round"/>
<path d="M685.083 192.408H680.084" stroke="#333333" stroke-miterlimit="10" stroke-linecap="round" stroke-linejoin="round"/>
<path d="M692.02 192.408H690.962" stroke="#333333" stroke-miterlimit="10" stroke-linecap="round" stroke-linejoin="round"/>
<path d="M692.02 203.376H690.962" stroke="#333333" stroke-miterlimit="10" stroke-linecap="round" stroke-linejoin="round"/>
<path d="M688.901 197.892H687.843" stroke="#333333" stroke-miterlimit="10" stroke-linecap="round" stroke-linejoin="round"/>
<path d="M688.901 197.892H687.843" stroke="#333333" stroke-miterlimit="10" stroke-linecap="round" stroke-linejoin="round"/>
<path d="M688.901 192.408H687.843" stroke="#333333" stroke-miterlimit="10" stroke-linecap="round" stroke-linejoin="round"/>
<path d="M688.901 192.408H687.843" stroke="#333333" stroke-miterlimit="10" stroke-linecap="round" stroke-linejoin="round"/>
<path d="M688.901 203.376H687.843" stroke="#333333" stroke-miterlimit="10" stroke-linecap="round" stroke-linejoin="round"/>
<path d="M689.897 206.118V207.454C689.897 207.982 690.329 208.414 690.857 208.414H692.113C692.641 208.414 693.073 207.982 693.073 207.454V206.118H689.897Z" stroke="#333333" stroke-miterlimit="10" stroke-linecap="round" stroke-linejoin="round"/>
<path d="M679.039 206.118V207.454C679.039 207.982 679.471 208.414 679.999 208.414H681.255C681.783 208.414 682.215 207.982 682.215 207.454V206.118H679.039Z" stroke="#333333" stroke-miterlimit="10" stroke-linecap="round" stroke-linejoin="round"/>
<path d="M684.89 189.666H678.585C678.024 189.666 677.551 190.14 677.551 190.701V194.116C677.551 194.677 678.024 195.15 678.585 195.15H693.526C694.087 195.15 694.561 194.677 694.561 194.116V190.701C694.561 190.14 694.087 189.666 693.526 189.666H687.624" stroke="#333333" stroke-miterlimit="10" stroke-linecap="round" stroke-linejoin="round"/>
<path d="M678.938 174.532V173.917C678.938 172.857 678.014 172.087 677.095 172.157C676.563 172.198 676.076 171.864 675.974 171.341C675.801 170.46 675.365 169.586 673.662 169.586H667.751C665.582 169.586 663.823 171.344 663.823 173.514V177.824C663.823 178.738 664.564 179.478 665.477 179.478H672.185C673.686 179.478 674.989 178.636 675.65 177.4C675.701 177.304 675.847 177.341 675.847 177.45C675.847 178.565 676.76 179.478 677.875 179.478C678.46 179.478 678.938 179 678.938 178.415V177.266" stroke="#333333" stroke-miterlimit="10" stroke-linecap="round" stroke-linejoin="round"/>
</g>
</g>
<mask id="mask3_22_323" style="mask-type:luminance" maskUnits="userSpaceOnUse" x="523" y="22" width="40" height="40">
<path d="M523 22H563V62H523V22Z" fill="white"/>
</mask>
<g mask="url(#mask3_22_323)">
<path d="M541.171 57.911H558.634C559.595 57.911 560.373 57.1323 560.373 56.1716V49.4287" stroke="#333333" stroke-miterlimit="10" stroke-linecap="round" stroke-linejoin="round"/>
<path d="M539.321 22.5859H534.58C533.619 22.5859 532.84 23.3646 532.84 24.3253V35.8406" stroke="#333333" stroke-miterlimit="10" stroke-linecap="round" stroke-linejoin="round"/>
<path d="M560.373 46.7587V24.3253C560.373 23.3647 559.595 22.5859 558.634 22.5859H541.991" stroke="#333333" stroke-miterlimit="10" stroke-linecap="round" stroke-linejoin="round"/>
<path d="M557 32.5464H536.214V26.7872H557V32.5464Z" stroke="#333333" stroke-miterlimit="10" stroke-linecap="round" stroke-linejoin="round"/>
<path d="M542.105 36.8601C542.298 36.5269 542.659 36.3029 543.073 36.3029H544.523C545.141 36.3029 545.643 36.804 545.643 37.4222C545.643 38.0403 545.141 38.5414 544.523 38.5414H543.541" stroke="#333333" stroke-miterlimit="10" stroke-linecap="round" stroke-linejoin="round"/>
<path d="M550.141 38.5414H548.691C548.072 38.5414 547.571 38.0403 547.571 37.4222C547.571 36.804 548.072 36.3029 548.691 36.3029H550.141C550.759 36.3029 551.261 36.804 551.261 37.4222C551.261 38.0403 550.759 38.5414 550.141 38.5414Z" stroke="#333333" stroke-miterlimit="10" stroke-linecap="round" stroke-linejoin="round"/>
<path d="M555.759 38.5414H554.309C553.69 38.5414 553.189 38.0403 553.189 37.4222C553.189 36.804 553.69 36.3029 554.309 36.3029H555.759C556.377 36.3029 556.879 36.804 556.879 37.4222C556.879 38.0403 556.377 38.5414 555.759 38.5414Z" stroke="#333333" stroke-miterlimit="10" stroke-linecap="round" stroke-linejoin="round"/>
<path d="M543.385 42.0003H544.523C545.141 42.0003 545.643 42.5014 545.643 43.1196C545.643 43.7377 545.141 44.2388 544.523 44.2388H543.073C542.454 44.2388 541.953 43.7377 541.953 43.1196" stroke="#333333" stroke-miterlimit="10" stroke-linecap="round" stroke-linejoin="round"/>
<path d="M550.141 44.2388H548.691C548.072 44.2388 547.571 43.7377 547.571 43.1196C547.571 42.5014 548.072 42.0003 548.691 42.0003H550.141C550.759 42.0003 551.261 42.5014 551.261 43.1196C551.261 43.7377 550.759 44.2388 550.141 44.2388Z" stroke="#333333" stroke-miterlimit="10" stroke-linecap="round" stroke-linejoin="round"/>
<path d="M555.759 44.2388H554.309C553.69 44.2388 553.189 43.7377 553.189 43.1196C553.189 42.5014 553.69 42.0003 554.309 42.0003H555.759C556.377 42.0003 556.879 42.5014 556.879 43.1196C556.879 43.7377 556.377 44.2388 555.759 44.2388Z" stroke="#333333" stroke-miterlimit="10" stroke-linecap="round" stroke-linejoin="round"/>
<path d="M541.953 47.6977C541.953 47.0796 542.454 46.5785 543.073 46.5785H544.523C545.142 46.5785 545.643 47.0796 545.643 47.6977C545.643 48.3158 545.142 48.817 544.523 48.817H543.229" stroke="#333333" stroke-miterlimit="10" stroke-linecap="round" stroke-linejoin="round"/>
<path d="M550.141 48.817H548.691C548.072 48.817 547.571 48.3158 547.571 47.6977C547.571 47.0796 548.072 46.5785 548.691 46.5785H550.141C550.759 46.5785 551.261 47.0796 551.261 47.6977C551.261 48.3158 550.759 48.817 550.141 48.817Z" stroke="#333333" stroke-miterlimit="10" stroke-linecap="round" stroke-linejoin="round"/>
<path d="M555.759 48.817H554.309C553.69 48.817 553.189 48.3158 553.189 47.6977C553.189 47.0796 553.69 46.5785 554.309 46.5785H555.759C556.377 46.5785 556.879 47.0796 556.879 47.6977C556.879 48.3158 556.377 48.817 555.759 48.817Z" stroke="#333333" stroke-miterlimit="10" stroke-linecap="round" stroke-linejoin="round"/>
<path d="M543.541 51.1566H544.523C545.141 51.1566 545.643 51.6577 545.643 52.2758C545.643 52.894 545.141 53.3951 544.523 53.3951H543.229" stroke="#333333" stroke-miterlimit="10" stroke-linecap="round" stroke-linejoin="round"/>
<path d="M550.141 53.3951H548.691C548.072 53.3951 547.571 52.894 547.571 52.2758C547.571 51.6577 548.072 51.1566 548.691 51.1566H550.141C550.759 51.1566 551.261 51.6577 551.261 52.2758C551.261 52.894 550.759 53.3951 550.141 53.3951Z" stroke="#333333" stroke-miterlimit="10" stroke-linecap="round" stroke-linejoin="round"/>
<path d="M555.759 53.3951H554.309C553.69 53.3951 553.189 52.894 553.189 52.2758C553.189 51.6577 553.69 51.1566 554.309 51.1566H555.759C556.377 51.1566 556.879 51.6577 556.879 52.2758C556.879 52.894 556.377 53.3951 555.759 53.3951Z" stroke="#333333" stroke-miterlimit="10" stroke-linecap="round" stroke-linejoin="round"/>
<path d="M525.627 55.6026V58.8743C525.627 60.1093 528.324 61.1381 531.899 61.3666" stroke="#333333" stroke-miterlimit="10" stroke-linecap="round" stroke-linejoin="round"/>
<path d="M534.569 61.3854C538.307 61.2009 541.171 60.1469 541.171 58.8744V55.6026" stroke="#333333" stroke-miterlimit="10" stroke-linecap="round" stroke-linejoin="round"/>
<path d="M540.705 54.7341C541.007 55.0051 541.171 55.2976 541.171 55.6027C541.171 57.0053 537.692 58.1423 533.399 58.1423C529.106 58.1423 525.627 57.0053 525.627 55.6027C525.627 54.8464 526.638 54.1673 528.244 53.7021" stroke="#333333" stroke-miterlimit="10" stroke-linecap="round" stroke-linejoin="round"/>
<path d="M527.835 49.4427V52.7144C527.835 54.1171 531.315 55.254 535.608 55.254C539.9 55.254 543.38 54.1171 543.38 52.7144V49.4427" stroke="#333333" stroke-miterlimit="10" stroke-linecap="round" stroke-linejoin="round"/>
<path d="M540.733 47.5333C542.356 47.9988 543.38 48.6816 543.38 49.4427C543.38 50.8453 539.9 51.9823 535.608 51.9823C531.315 51.9823 527.835 50.8453 527.835 49.4427C527.835 49.1332 528.005 48.8365 528.315 48.5622" stroke="#333333" stroke-miterlimit="10" stroke-linecap="round" stroke-linejoin="round"/>
<path d="M525.627 43.2827V46.5544C525.627 47.9571 529.106 49.0941 533.399 49.0941C537.692 49.0941 541.171 47.9571 541.171 46.5544V43.5424" stroke="#333333" stroke-miterlimit="10" stroke-linecap="round" stroke-linejoin="round"/>
<path d="M541.131 43.5424C540.733 44.823 537.423 45.8224 533.399 45.8224C529.106 45.8224 525.627 44.6854 525.627 43.2827C525.627 42.6309 526.378 42.0365 527.613 41.5868" stroke="#333333" stroke-miterlimit="10" stroke-linecap="round" stroke-linejoin="round"/>
<path d="M527.835 38.3802V41.652C527.835 43.0546 531.315 44.1917 535.608 44.1917C539.9 44.1917 543.38 43.0546 543.38 41.652V38.3802" stroke="#333333" stroke-miterlimit="10" stroke-linecap="round" stroke-linejoin="round"/>
<path d="M543.38 38.3803C543.38 39.7829 539.9 40.9199 535.608 40.9199C531.315 40.9199 527.835 39.7829 527.835 38.3803C527.835 36.9777 531.315 35.8406 535.608 35.8406C539.9 35.8406 543.38 36.9777 543.38 38.3803Z" stroke="#333333" stroke-miterlimit="10" stroke-linecap="round" stroke-linejoin="round"/>
<path d="M528.376 34.1542H530.357" stroke="#333333" stroke-miterlimit="10" stroke-linecap="round" stroke-linejoin="round"/>
<path d="M528.376 32.3385H530.357" stroke="#333333" stroke-miterlimit="10" stroke-linecap="round" stroke-linejoin="round"/>
<path d="M530.361 30.3242H530.353" stroke="#333333" stroke-miterlimit="10" stroke-linecap="round" stroke-linejoin="round"/>
</g>
<g clip-path="url(#clip5_22_323)">
<mask id="mask4_22_323" style="mask-type:luminance" maskUnits="userSpaceOnUse" x="186" y="22" width="40" height="40">
<path d="M186 22H226V62H186V22Z" fill="white"/>
</mask>
<g mask="url(#mask4_22_323)">
<path d="M198.817 59.8313C205.747 62.6193 213.974 61.2055 219.59 55.5897C226.427 48.7521 227.036 38.044 221.415 30.5176" stroke="#333333" stroke-miterlimit="10" stroke-linecap="round" stroke-linejoin="round"/>
<path d="M196 58.4173C196.01 58.4235 196.02 58.4297 196.03 58.4359" stroke="#333333" stroke-miterlimit="10" stroke-linecap="round" stroke-linejoin="round"/>
<path d="M224.568 30.2813H221.156V33.6927" stroke="#333333" stroke-miterlimit="10" stroke-linecap="round" stroke-linejoin="round"/>
<path d="M213.295 24.2141C206.341 21.3655 198.056 22.7643 192.41 28.4103C185.573 35.248 184.964 45.9561 190.585 53.4824" stroke="#333333" stroke-miterlimit="10" stroke-linecap="round" stroke-linejoin="round"/>
<path d="M216.104 25.6464C216.091 25.6384 216.078 25.6304 216.065 25.6225" stroke="#333333" stroke-miterlimit="10" stroke-linecap="round" stroke-linejoin="round"/>
<path d="M187.465 53.8229H190.948V50.3398" stroke="#333333" stroke-miterlimit="10" stroke-linecap="round" stroke-linejoin="round"/>
<path d="M204.123 42C204.123 43.0364 204.964 43.8766 206 43.8766C207.036 43.8766 207.877 43.0364 207.877 42C207.877 40.9636 207.036 40.1235 206 40.1235C204.964 40.1235 204.123 40.9636 204.123 42Z" stroke="#333333" stroke-miterlimit="10" stroke-linecap="round" stroke-linejoin="round"/>
<path d="M194.523 35.0047C191.364 40.1782 192.022 47.026 196.498 51.5018C201.746 56.7494 210.254 56.7494 215.502 51.5018C220.749 46.2541 220.749 37.7459 215.502 32.4982C211.029 28.0254 204.187 27.365 199.015 30.517" stroke="#333333" stroke-miterlimit="10" stroke-linecap="round" stroke-linejoin="round"/>
<path d="M196.478 32.519C196.464 32.5327 196.471 32.5258 196.457 32.5397" stroke="#333333" stroke-miterlimit="10" stroke-linecap="round" stroke-linejoin="round"/>
<path d="M216.451 42.0125H215.978" stroke="#333333" stroke-miterlimit="10" stroke-linecap="round" stroke-linejoin="round"/>
<path d="M195.549 41.9875H196.022" stroke="#333333" stroke-miterlimit="10" stroke-linecap="round" stroke-linejoin="round"/>
<path d="M206.012 31.5491V32.0223" stroke="#333333" stroke-miterlimit="10" stroke-linecap="round" stroke-linejoin="round"/>
<path d="M205.988 52.4509V51.9776" stroke="#333333" stroke-miterlimit="10" stroke-linecap="round" stroke-linejoin="round"/>
<path d="M204.673 40.6731L201.61 37.6102" stroke="#333333" stroke-miterlimit="10" stroke-linecap="round" stroke-linejoin="round"/>
<path d="M207.327 40.6731L213.037 34.9629" stroke="#333333" stroke-miterlimit="10" stroke-linecap="round" stroke-linejoin="round"/>
</g>
</g>
<defs>
<radialGradient id="paint0_radial_22_323" cx="0" cy="0" r="1" gradientUnits="userSpaceOnUse" gradientTransform="translate(375 337) rotate(90) scale(188)">
<stop stop-color="#FFD201" stop-opacity="0.41"/>
<stop offset="1" stop-color="#FFD201" stop-opacity="0"/>
</radialGradient>
<linearGradient id="paint1_linear_22_323" x1="291.132" y1="253.496" x2="458.635" y2="421" gradientUnits="userSpaceOnUse">
<stop stop-color="#F5F5F5"/>
<stop offset="1" stop-color="white"/>
</linearGradient>
<linearGradient id="paint2_linear_22_323" x1="374.076" y1="336.634" x2="591.781" y2="336.634" gradientUnits="userSpaceOnUse">
<stop stop-color="white"/>
<stop offset="1" stop-color="#F5F5F5"/>
</linearGradient>
<linearGradient id="paint3_linear_22_323" x1="374.075" y1="336.634" x2="156.37" y2="336.634" gradientUnits="userSpaceOnUse">
<stop stop-color="white"/>
<stop offset="1" stop-color="#F5F5F5"/>
</linearGradient>
<linearGradient id="paint4_linear_22_323" x1="nan" y1="nan" x2="nan" y2="nan" gradientUnits="userSpaceOnUse">
<stop stop-color="white"/>
<stop offset="1" stop-color="#F5F5F5"/>
</linearGradient>
<linearGradient id="paint5_linear_22_323" x1="568.383" y1="458.832" x2="676.59" y2="458.832" gradientUnits="userSpaceOnUse">
<stop stop-color="white"/>
<stop offset="1" stop-color="#F5F5F5"/>
</linearGradient>
<linearGradient id="paint6_linear_22_323" x1="505.698" y1="570.63" x2="544.368" y2="570.63" gradientUnits="userSpaceOnUse">
<stop stop-color="white"/>
<stop offset="1" stop-color="#F5F5F5"/>
</linearGradient>
<linearGradient id="paint7_linear_22_323" x1="497.855" y1="500.528" x2="512.963" y2="515.595" gradientUnits="userSpaceOnUse">
<stop stop-color="#E991FC"/>
<stop offset="1" stop-color="#7533D8"/>
</linearGradient>
<linearGradient id="paint8_linear_22_323" x1="492.897" y1="496.957" x2="516.496" y2="519.776" gradientUnits="userSpaceOnUse">
<stop stop-color="#FFDF00"/>
<stop offset="1" stop-color="#FFB800"/>
</linearGradient>
<linearGradient id="paint9_linear_22_323" x1="560.842" y1="424.47" x2="575.932" y2="439.535" gradientUnits="userSpaceOnUse">
<stop stop-color="#E991FC"/>
<stop offset="1" stop-color="#7533D8"/>
</linearGradient>
<linearGradient id="paint10_linear_22_323" x1="555.897" y1="420.957" x2="579.496" y2="443.776" gradientUnits="userSpaceOnUse">
<stop stop-color="#FFDF00"/>
<stop offset="1" stop-color="#FFB800"/>
</linearGradient>
<linearGradient id="paint11_linear_22_323" x1="582.889" y1="328.602" x2="597.955" y2="343.668" gradientUnits="userSpaceOnUse">
<stop stop-color="#E991FC"/>
<stop offset="1" stop-color="#7533D8"/>
</linearGradient>
<linearGradient id="paint12_linear_22_323" x1="577.897" y1="324.957" x2="601.496" y2="347.776" gradientUnits="userSpaceOnUse">
<stop stop-color="#FFDF00"/>
<stop offset="1" stop-color="#FFB800"/>
</linearGradient>
<linearGradient id="paint13_linear_22_323" x1="559.91" y1="233.566" x2="574.995" y2="248.669" gradientUnits="userSpaceOnUse">
<stop stop-color="#E991FC"/>
<stop offset="1" stop-color="#7533D8"/>
</linearGradient>
<linearGradient id="paint14_linear_22_323" x1="554.897" y1="229.957" x2="578.496" y2="252.776" gradientUnits="userSpaceOnUse">
<stop stop-color="#FFDF00"/>
<stop offset="1" stop-color="#FFB800"/>
</linearGradient>
<linearGradient id="paint15_linear_22_323" x1="647.746" y1="160.417" x2="704.199" y2="216.87" gradientUnits="userSpaceOnUse">
<stop stop-color="#E991FC"/>
<stop offset="1" stop-color="#7533D8"/>
</linearGradient>
<linearGradient id="paint16_linear_22_323" x1="627.588" y1="145.923" x2="721.984" y2="237.202" gradientUnits="userSpaceOnUse">
<stop stop-color="#FFDF00"/>
<stop offset="1" stop-color="#FFB800"/>
</linearGradient>
<linearGradient id="paint17_linear_22_323" x1="680.746" y1="308.408" x2="737.199" y2="364.861" gradientUnits="userSpaceOnUse">
<stop stop-color="#E991FC"/>
<stop offset="1" stop-color="#7533D8"/>
</linearGradient>
<linearGradient id="paint18_linear_22_323" x1="660.588" y1="293.923" x2="754.984" y2="385.202" gradientUnits="userSpaceOnUse">
<stop stop-color="#FFDF00"/>
<stop offset="1" stop-color="#FFB800"/>
</linearGradient>
<linearGradient id="paint19_linear_22_323" x1="647.746" y1="456.399" x2="704.199" y2="512.852" gradientUnits="userSpaceOnUse">
<stop stop-color="#E991FC"/>
<stop offset="1" stop-color="#7533D8"/>
</linearGradient>
<linearGradient id="paint20_linear_22_323" x1="627.588" y1="441.923" x2="721.984" y2="533.202" gradientUnits="userSpaceOnUse">
<stop stop-color="#FFDF00"/>
<stop offset="1" stop-color="#FFB800"/>
</linearGradient>
<linearGradient id="paint21_linear_22_323" x1="494.588" y1="588.923" x2="588.984" y2="680.202" gradientUnits="userSpaceOnUse">
<stop stop-color="#FFDF00"/>
<stop offset="1" stop-color="#FFB800"/>
</linearGradient>
<linearGradient id="paint22_linear_22_323" x1="505.517" y1="103.797" x2="544.368" y2="103.797" gradientUnits="userSpaceOnUse">
<stop stop-color="white"/>
<stop offset="1" stop-color="#F5F5F5"/>
</linearGradient>
<linearGradient id="paint23_linear_22_323" x1="497.849" y1="157.486" x2="512.999" y2="172.594" gradientUnits="userSpaceOnUse">
<stop stop-color="#E991FC"/>
<stop offset="1" stop-color="#7533D8"/>
</linearGradient>
<linearGradient id="paint24_linear_22_323" x1="492.897" y1="153.957" x2="516.496" y2="176.776" gradientUnits="userSpaceOnUse">
<stop stop-color="#FFDF00"/>
<stop offset="1" stop-color="#FFB800"/>
</linearGradient>
<linearGradient id="paint25_linear_22_323" x1="514.746" y1="13.4256" x2="571.199" y2="69.8784" gradientUnits="userSpaceOnUse">
<stop stop-color="#E991FC"/>
<stop offset="1" stop-color="#7533D8"/>
</linearGradient>
<linearGradient id="paint26_linear_22_323" x1="494.588" y1="-1.07734" x2="588.984" y2="90.2022" gradientUnits="userSpaceOnUse">
<stop stop-color="#FFDF00"/>
<stop offset="1" stop-color="#FFB800"/>
</linearGradient>
<linearGradient id="paint27_linear_22_323" x1="nan" y1="nan" x2="nan" y2="nan" gradientUnits="userSpaceOnUse">
<stop stop-color="white"/>
<stop offset="1" stop-color="#F5F5F5"/>
</linearGradient>
<linearGradient id="paint28_linear_22_323" x1="180.982" y1="458.833" x2="72.7753" y2="458.833" gradientUnits="userSpaceOnUse">
<stop stop-color="white"/>
<stop offset="1" stop-color="#F5F5F5"/>
</linearGradient>
<linearGradient id="paint29_linear_22_323" x1="180.982" y1="216.158" x2="72.7753" y2="216.158" gradientUnits="userSpaceOnUse">
<stop stop-color="white"/>
<stop offset="1" stop-color="#F5F5F5"/>
</linearGradient>
<linearGradient id="paint30_linear_22_323" x1="243.668" y1="570.63" x2="204.997" y2="570.63" gradientUnits="userSpaceOnUse">
<stop stop-color="white"/>
<stop offset="1" stop-color="#F5F5F5"/>
</linearGradient>
<linearGradient id="paint31_linear_22_323" x1="234.987" y1="500.527" x2="250.1" y2="515.599" gradientUnits="userSpaceOnUse">
<stop stop-color="#FFDB65"/>
<stop offset="1" stop-color="#FF8C33"/>
</linearGradient>
<linearGradient id="paint32_linear_22_323" x1="229.897" y1="496.957" x2="253.496" y2="519.776" gradientUnits="userSpaceOnUse">
<stop stop-color="#FFDF00"/>
<stop offset="1" stop-color="#FFB800"/>
</linearGradient>
<linearGradient id="paint33_linear_22_323" x1="172.003" y1="424.47" x2="187.094" y2="439.536" gradientUnits="userSpaceOnUse">
<stop stop-color="#FFDB65"/>
<stop offset="1" stop-color="#FF8C33"/>
</linearGradient>
<linearGradient id="paint34_linear_22_323" x1="166.897" y1="420.957" x2="190.496" y2="443.776" gradientUnits="userSpaceOnUse">
<stop stop-color="#FFDF00"/>
<stop offset="1" stop-color="#FFB800"/>
</linearGradient>
<linearGradient id="paint35_linear_22_323" x1="147.955" y1="328.602" x2="163.023" y2="343.67" gradientUnits="userSpaceOnUse">
<stop stop-color="#FFDB65"/>
<stop offset="1" stop-color="#FF8C33"/>
</linearGradient>
<linearGradient id="paint36_linear_22_323" x1="142.897" y1="324.957" x2="166.496" y2="347.776" gradientUnits="userSpaceOnUse">
<stop stop-color="#FFDF00"/>
<stop offset="1" stop-color="#FFB800"/>
</linearGradient>
<linearGradient id="paint37_linear_22_323" x1="171.899" y1="233.565" x2="186.988" y2="248.671" gradientUnits="userSpaceOnUse">
<stop stop-color="#FFDB65"/>
<stop offset="1" stop-color="#FF8C33"/>
</linearGradient>
<linearGradient id="paint38_linear_22_323" x1="166.897" y1="229.957" x2="190.496" y2="252.776" gradientUnits="userSpaceOnUse">
<stop stop-color="#FFDF00"/>
<stop offset="1" stop-color="#FFB800"/>
</linearGradient>
<linearGradient id="paint39_linear_22_323" x1="44.6212" y1="160.417" x2="101.074" y2="216.87" gradientUnits="userSpaceOnUse">
<stop stop-color="#FFDB65"/>
<stop offset="1" stop-color="#FF8C33"/>
</linearGradient>
<linearGradient id="paint40_linear_22_323" x1="24.5883" y1="145.923" x2="118.984" y2="237.202" gradientUnits="userSpaceOnUse">
<stop stop-color="#FFDF00"/>
<stop offset="1" stop-color="#FFB800"/>
</linearGradient>
<linearGradient id="paint41_linear_22_323" x1="11.6212" y1="308.409" x2="68.0739" y2="364.861" gradientUnits="userSpaceOnUse">
<stop stop-color="#FFDB65"/>
<stop offset="1" stop-color="#FF8C33"/>
</linearGradient>
<linearGradient id="paint42_linear_22_323" x1="-8.41168" y1="293.923" x2="85.9836" y2="385.202" gradientUnits="userSpaceOnUse">
<stop stop-color="#FFDF00"/>
<stop offset="1" stop-color="#FFB800"/>
</linearGradient>
<linearGradient id="paint43_linear_22_323" x1="44.6212" y1="456.4" x2="101.074" y2="512.853" gradientUnits="userSpaceOnUse">
<stop stop-color="#FFDB65"/>
<stop offset="1" stop-color="#FF8C33"/>
</linearGradient>
<linearGradient id="paint44_linear_22_323" x1="24.5883" y1="441.923" x2="118.984" y2="533.202" gradientUnits="userSpaceOnUse">
<stop stop-color="#FFDF00"/>
<stop offset="1" stop-color="#FFB800"/>
</linearGradient>
<linearGradient id="paint45_linear_22_323" x1="176.621" y1="603.391" x2="233.074" y2="659.844" gradientUnits="userSpaceOnUse">
<stop stop-color="#FFDB65"/>
<stop offset="1" stop-color="#FF8C33"/>
</linearGradient>
<linearGradient id="paint46_linear_22_323" x1="156.588" y1="588.923" x2="250.984" y2="680.202" gradientUnits="userSpaceOnUse">
<stop stop-color="#FFDF00"/>
<stop offset="1" stop-color="#FFB800"/>
</linearGradient>
<linearGradient id="paint47_linear_22_323" x1="243.848" y1="103.798" x2="204.997" y2="103.798" gradientUnits="userSpaceOnUse">
<stop stop-color="white"/>
<stop offset="1" stop-color="#F5F5F5"/>
</linearGradient>
<linearGradient id="paint48_linear_22_323" x1="234.959" y1="157.49" x2="250.102" y2="172.591" gradientUnits="userSpaceOnUse">
<stop stop-color="#FFDB65"/>
<stop offset="1" stop-color="#FF8C33"/>
</linearGradient>
<linearGradient id="paint49_linear_22_323" x1="229.897" y1="153.957" x2="253.496" y2="176.776" gradientUnits="userSpaceOnUse">
<stop stop-color="#FFDF00"/>
<stop offset="1" stop-color="#FFB800"/>
</linearGradient>
<linearGradient id="paint50_linear_22_323" x1="157.588" y1="-1.07734" x2="251.984" y2="90.2021" gradientUnits="userSpaceOnUse">
<stop stop-color="#FFDF00"/>
<stop offset="1" stop-color="#FFB800"/>
</linearGradient>
<clipPath id="clip0_22_323">
<rect width="40" height="40" fill="white" transform="translate(53 169)"/>
</clipPath>
<clipPath id="clip1_22_323">
<rect width="40" height="40" fill="white" transform="translate(53 465)"/>
</clipPath>
<clipPath id="clip2_22_323">
<rect width="40" height="40" fill="white" transform="translate(185 612)"/>
</clipPath>
<clipPath id="clip3_22_323">
<rect width="40" height="40" fill="white" transform="translate(656 465)"/>
</clipPath>
<clipPath id="clip4_22_323">
<rect width="40" height="40" fill="white" transform="translate(656 169)"/>
</clipPath>
<clipPath id="clip5_22_323">
<rect width="40" height="40" fill="white" transform="translate(186 22)"/>
</clipPath>
</defs>
</svg>
